<svg t="1635847138920" class="icon" viewBox="0 0 1024 1024" version="1.1" xmlns="http://www.w3.org/2000/svg" p-id="2841" width="200" height="200"><path d="M349.013333 995.562667H10.666667V0h947.2v205.802667h-65.429334v-140.373334H76.096V930.133333H349.013333z" fill="#20A0FF" opacity=".4" p-id="2842"></path><path d="M199.829333 553.664H398.933333v65.429333H199.829333v-65.429333z m0 177.365333H398.933333v65.408H199.829333v-65.408z m0-354.56H398.933333v65.408H199.829333v-65.408z m0-177.365333h312.874667V264.533333H199.829333V199.104zM753.066667 752.64c-139.221333-0.469333-251.754667-113.642667-251.456-252.864 0.32-139.242667 113.365333-251.904 252.586666-251.733333 139.242667 0.149333 252.032 113.066667 252.032 252.288-0.405333 139.52-113.642667 252.373333-253.162666 252.309333z m0-439.744a186.88 186.88 0 1 0 187.733333 187.434667 187.456 187.456 0 0 0-187.733333-187.434667z" fill="#20A0FF" opacity=".4" p-id="2843"></path><path d="M913.770667 1024L753.066667 924.864 592.362667 1024V695.189333h65.408v211.626667l95.296-58.752 95.296 58.752v-211.626667h65.408V1024zM753.066667 406.890667l30.72 62.293333 68.842666 10.112-49.792 48.490667 11.818667 68.544-61.589333-32.426667-61.589334 32.426667 11.818667-68.544-49.792-48.490667 68.842667-10.112 30.72-62.293333z" fill="#20A0FF" opacity=".4" p-id="2844"></path></svg>