<svg t="1639041442661" class="icon" viewBox="0 0 1024 1024" version="1.1" xmlns="http://www.w3.org/2000/svg" p-id="3201" width="200" height="200"><path d="M684.148772 550.136515l-146.285287-146.285287c-14.282105-14.279111-37.432889-14.279111-51.714994 0l-146.285286 146.285287a36.570573 36.570573 0 1 0 51.714994 51.714994l83.851228-83.851228V923.426433c0 20.195556 16.372023 36.570573 36.570573 36.570573s36.570573-16.375018 36.570573-36.570573V518.000281l83.851228 83.851228a36.570573 36.570573 0 1 0 51.714994-51.714994h0.011977z" fill="#0283FF" p-id="3202"></path><path d="M786.285287 795.426433h-128c-20.19855 0-36.570573-16.372023-36.570574-36.570573 0-20.195556 16.372023-36.570573 36.570574-36.570573h128c90.743766 0 164.570573-73.826807 164.570573-164.570574 0.002994-85.773474-65.871345-157.166035-151.369357-164.046596a36.570573 36.570573 0 0 1-33.417731-31.998503c-15.668398-128-124.925006-224.525474-254.068772-224.525474-129.143766 0-238.400374 96.525474-254.068772 224.513497a36.570573 36.570573 0 0 1-33.414737 31.998503c-85.504 6.880561-151.384327 78.279111-151.372351 164.058573 0 90.743766 73.826807 164.570573 164.570573 164.570574h128c20.19855 0 36.570573 16.375018 36.570574 36.570573 0 20.19855-16.372023 36.573567-36.570574 36.573567h-128C106.639719 795.426433 0 688.789708 0 557.714713c0.020959-112.88552 79.398924-210.198456 189.978947-232.903111C221.716959 174.286596 355.426807 64 512 64c156.570199 0 290.283041 110.286596 322.021053 260.811602 110.580023 22.704655 189.957988 120.017591 189.978947 232.903111 0 131.074994-106.639719 237.714713-237.714713 237.714714z" fill="#0283FF" p-id="3203"></path></svg>