<svg class="icon" viewBox="0 0 1024 1024" xmlns="http://www.w3.org/2000/svg" width="128" height="128"><defs><style/></defs><path d="M512 42.667C251.733 42.667 42.667 251.733 42.667 512S251.733 981.333 512 981.333 981.333 772.267 981.333 512 768 42.667 512 42.667z" fill="#FF6A39"/><path d="M784.213 435.03L653.824 303.786l-11.563-4.907H381.696l-11.563 4.907-130.304 131.2a16.427 16.427 0 00-.128 22.954L500.31 727.595a16.47 16.47 0 0023.595 0L784.512 457.94a16.64 16.64 0 00-.341-22.954zm-43.861 2.389h-90.965l-104.96-105.686h90.965l104.96 105.686zm-351.744-105.6h91.563L375.253 437.547h-91.605l104.96-105.728zm-91.52 138.41h84.907l11.605-4.821 118.613-119.467 118.614 119.467 11.562 4.821h84.31L512 692.48 297.088 470.187z" fill="#FFF"/></svg>