<svg class="icon" viewBox="0 0 1024 1024" xmlns="http://www.w3.org/2000/svg" width="128" height="128"><defs><style/></defs><path d="M400.17 657.493l97.537-128.554 93.141 128.597h-190.72zM511.02 307.2l164.096 124.16-164.096 53.205V307.2zm-31.062 0v177.365L315.904 431.36 479.957 307.2zm-168.49 150.784l159.658 53.205-93.141 128.598-66.517-181.803zm301.525 181.803l-93.099-128.598 164.054-53.205-70.955 181.803z" fill="#FF6A39"/><path d="M499.755 63.061A447.616 447.616 0 0050.816 512a447.616 447.616 0 00448.939 448.939A447.616 447.616 0 00948.693 512c0-248.96-204.074-448.939-448.938-448.939zm269.354 357.291l-44.885 16.341-85.717 228.523 36.736 48.981c4.096 4.096 4.096 16.342-4.096 20.395-4.054 4.096-16.299 4.096-20.395-4.053l-36.693-48.982h-236.8l-36.694 48.982c-4.096 4.053-12.245 8.149-20.437 4.053-4.053-4.053-8.15-12.245-4.053-20.395l36.693-48.981-85.675-228.523-48.981-16.341c-8.15-4.053-12.245-8.15-8.15-16.299 4.054-8.192 8.15-12.245 16.3-8.192l48.98 16.342 199.98-151.04V216.32c0-8.192 4.095-12.245 12.245-12.245 8.149 0 12.245 8.106 12.245 12.245v44.885l204.075 150.998 44.885-16.342c8.15 0 16.299 0 16.299 8.192 16.341 8.107 12.245 12.246 4.096 16.299z" fill="#FF6A39"/></svg>