<svg class="icon" viewBox="0 0 1024 1024" xmlns="http://www.w3.org/2000/svg" width="128" height="128"><defs><style/></defs><path d="M192 48A144 144 0 0 0 48 192v640a144 144 0 0 0 144 144h640a144 144 0 0 0 144-144V192A144 144 0 0 0 832 48H192zm0-32h640a176 176 0 0 1 176 176v640a176 176 0 0 1-176 176H192A176 176 0 0 1 16 832V192A176 176 0 0 1 192 16z" fill="#CCC"/><path d="M523.648 715.52c15.68 0 27.424-11.712 27.424-27.392V551.072h137.056c15.68 0 27.424-11.776 27.424-27.424a26.784 26.784 0 0 0-27.424-27.424H551.072V359.168a26.784 26.784 0 0 0-27.424-27.424 26.784 26.784 0 0 0-27.424 27.424v137.056H359.168a26.784 26.784 0 0 0-27.424 27.424c0 15.68 11.744 27.424 27.424 27.424h137.056v137.056c0 15.68 13.728 29.376 27.424 27.424z" fill="#20A0FF"/></svg>