<svg class="icon" viewBox="0 0 1024 1024" xmlns="http://www.w3.org/2000/svg" width="128" height="128"><defs><style/></defs><path d="M545.655 723.49c0-19.046-15.291-34.475-34.133-34.475-18.807 0-34.1 15.429-34.1 34.475s15.293 34.475 34.134 34.475c18.808 0 34.1-15.428 34.1-34.475zm-68.198-100.352V341.163c0-17.34 15.292-31.403 34.133-31.403 18.774 0 34.065 14.063 34.065 31.403v282.043c0 17.374-15.257 31.403-34.099 31.403-18.841-.068-34.099-14.029-34.099-31.403zm.341-455.236l-331.366 592.93c-10.41 19.695-12.834 37.41-6.622 48.572 6.212 11.127 21.982 17.51 43.315 17.51h656.828c21.333 0 37.171-6.349 43.315-17.51 6.144-11.128 3.755-28.809-6.622-48.47L544.905 167.868c-10.104-19.15-22.63-30.584-33.52-30.584-10.922 0-23.415 11.435-33.552 30.584zM178.756 895.863c-44.68 0-80.486-17.612-98.406-48.4-17.92-30.755-15.736-70.93 6.007-110.183L422.23 130.628c21.846-39.56 54.375-62.259 89.157-62.259 34.816 0 67.31 22.665 89.224 62.191l336.213 606.788c21.778 39.254 24.03 79.429 6.042 110.183-17.886 30.754-53.794 48.332-98.372 48.332H178.688h.034z" fill="#FFBE15"/></svg>