<svg class="icon" viewBox="0 0 1024 1024" xmlns="http://www.w3.org/2000/svg" width="128" height="128"><defs><style/></defs><path d="M870.059 408.576H305.323l567.569-192.58a67.994 67.994 0 0 0 45.226-84.31l-14.54-48.947a68.335 68.335 0 0 0-65.093-48.572c-6.553 0-13.073.956-19.387 2.834l-.444.136-684.51 232.243a67.994 67.994 0 0 0-45.227 84.31l14.541 48.947c4.028 13.517 12.083 25.088 22.63 33.553-8.362 11.264-13.311 25.259-13.311 40.345v429.74c0 37.478 30.48 67.924 67.925 67.924h689.357c37.444 0 67.925-30.446 67.925-67.925V476.535c0-37.444-30.481-67.925-67.925-67.925zm17.169 67.925v68.267h-199.1l68.983-85.402h112.914c9.454 0 17.169 7.68 17.169 17.17zm-706.492-17.135h172.749l-75.776 75.81a25.259 25.259 0 0 0-6.042 9.558h-108.1v-68.199c0-9.489 7.714-17.169 17.169-17.169zm239.206 5.325a25.395 25.395 0 0 0 4.096-5.325h267.845l-62.806 77.824a25.327 25.327 0 0 0-4.266 7.578H339.866l80.076-80.077zm-270.78-146.773l.479-.17 684.305-232.21a17.203 17.203 0 0 1 20.992 11.674l14.54 48.947a17.203 17.203 0 0 1-11.57 21.333l-.445.137-684.339 232.243a17.17 17.17 0 0 1-20.958-11.674l-14.609-48.947a17.203 17.203 0 0 1 11.606-21.367zM870.06 923.443H180.736a17.203 17.203 0 0 1-17.17-17.169v-310.75h723.628v310.75a17.203 17.203 0 0 1-17.135 17.203z" fill="#20A0FF"/></svg>