<svg class="icon" viewBox="0 0 1024 1024" xmlns="http://www.w3.org/2000/svg" width="128" height="128"><defs><style/></defs><path d="M458.923 735.47L567.74 573.407a25.941 25.941 0 0 0 0-36.08 25.941 25.941 0 0 0-36.08 0L422.845 699.393a25.941 25.941 0 0 0 0 36.079 24.917 24.917 0 0 0 36.079 0zm176.947.581a24.2 24.2 0 0 0 33.792 0l81.271-77.312c1.127-1.16 2.868-1.706 3.994-2.867 1.16-1.16 1.16-1.707 1.707-2.867l.58-.58c1.16-1.127 1.707-2.287 1.707-2.868a23.45 23.45 0 0 0-3.994-27.477l-84.753-85.333a24.2 24.2 0 0 0-33.792 0 24.917 24.917 0 0 0 0 34.372l64.717 65.297-65.263 65.263a23.86 23.86 0 0 0 0 34.372zM414.822 209.818a26.897 26.897 0 1 0 0 53.794 26.897 26.897 0 1 0 0-53.794zm-181.52 442.607l.58.58a12.527 12.527 0 0 0 1.706 2.867c1.16 1.126 2.867 1.707 4.028 2.867l81.886 77.312a24.2 24.2 0 0 0 33.792 0 24.917 24.917 0 0 0 0-34.372l-65.297-65.877 64.717-65.263a24.917 24.917 0 0 0 0-34.338 24.2 24.2 0 0 0-33.792 0l-85.334 85.333a23.552 23.552 0 0 0-3.993 27.477c0 1.127.58 1.707 1.706 3.414zm75.024-442.607a26.897 26.897 0 1 0 0 53.794 26.897 26.897 0 1 0 0-53.794zm-106.496 0a26.897 26.897 0 1 0 0 53.794 26.897 26.897 0 0 0 26.897-26.897c-.58-14.882-12.014-26.897-26.897-26.897zm639.59-106.496H148.583a80.418 80.418 0 0 0-80.213 80.145v693.418a80.418 80.418 0 0 0 80.213 80.214h692.805a80.418 80.418 0 0 0 80.213-80.214V183.467a80.418 80.418 0 0 0-80.18-80.18zm26.932 746.666c0 29.218-24.064 53.248-53.248 53.248H174.899c-29.184 0-53.248-24.03-53.248-53.248V370.142h746.701v479.846zm0-533.094h-746.7V209.818c0-29.219 24.063-53.248 53.247-53.248h640.205c29.184 0 53.248 24.03 53.248 53.248v107.076z" fill="#3CD0BE"/></svg>