<svg class="icon" viewBox="0 0 1024 1024" xmlns="http://www.w3.org/2000/svg" width="200" height="200"><defs><style/></defs><path d="M0 512a512 512 0 101024 0A512 512 0 100 512z" fill="#FF6A39"/><path d="M693.043 658.278H345.6c-7.322 0-10.957 0-18.278 3.687V310.784c0-10.957 7.321-18.278 18.278-18.278h54.835V493.67c0 10.957 7.322 18.279 18.33 18.279 3.635 0 10.957 0 14.592-3.635L473.6 468.07l40.243 40.244c3.635 3.635 7.322 3.635 14.592 3.635 11.008 0 18.33-7.322 18.33-18.279V292.557h135.27c7.322 0 11.008 3.686 11.008 11.008v354.713zm0 73.165H345.6c-10.957 0-18.278-7.321-18.278-18.278 0-11.008 7.321-18.33 18.278-18.33h347.443v36.608zm-256-438.886h73.114v160.921l-21.914-25.6c-3.686-3.635-11.008-3.635-14.643-3.635-3.635 0-10.957 0-14.643 3.635l-21.914 25.6V292.557zM711.322 256H345.6c-29.235 0-54.835 25.6-54.835 54.835V716.8c0 25.6 25.6 51.2 54.835 51.2h369.357c11.008 0 18.278-7.322 18.278-18.278V274.278C729.6 263.322 722.278 256 711.322 256z" fill="#FFF"/></svg>