<?xml version="1.0" standalone="no"?><!DOCTYPE svg PUBLIC "-//W3C//DTD SVG 1.1//EN" "http://www.w3.org/Graphics/SVG/1.1/DTD/svg11.dtd"><svg t="1628049661206" class="icon" viewBox="0 0 1024 1024" version="1.1" xmlns="http://www.w3.org/2000/svg" p-id="3236" xmlns:xlink="http://www.w3.org/1999/xlink" width="200" height="200"><defs><style type="text/css"></style></defs><path d="M512 0c279.296 0 512 228.096 512 512s-228.096 512-512 512S0 795.904 0 512 228.096 0 512 0z m66.816 256H349.0816a45.056 45.056 0 0 0-44.9536 44.9536v422.144a45.056 45.056 0 0 0 44.9024 44.9024h325.9392a44.9536 44.9536 0 0 0 44.9024-44.9024V397.1584a44.4416 44.4416 0 0 0-13.1584-31.744l-96.2048-96.256a44.8 44.8 0 0 0-31.744-13.1584z m-3.2256 30.8224V368.64a31.8464 31.8464 0 0 0 31.8464 31.8464h81.5616v322.56a14.08 14.08 0 0 1-14.0288 14.08H349.0304a14.0288 14.0288 0 0 1-14.08-14.08V300.9536a14.08 14.08 0 0 1 14.1312-14.08l226.5088-0.0512z m10.752 196.2496c-19.712 0-37.5808 7.4752-51.0976 19.712H433.2032a15.4112 15.4112 0 1 0 0 30.8736h81.408a75.9808 75.9808 0 0 0-2.4064 42.5472H433.2032a15.4624 15.4624 0 0 0 0 30.8736h82.8928a14.6944 14.6944 0 0 0 8.96-3.0208c1.024 1.4336 2.1504 2.816 3.2768 4.096v78.1824a18.944 18.944 0 0 0 25.9072 17.664l31.232-12.032 31.5392 12.0832a18.944 18.944 0 0 0 25.8048-17.7152V609.792c12.0832-13.4656 19.456-31.232 19.456-50.688a76.0832 76.0832 0 0 0-75.9808-76.032z m-27.136 146.9952a75.9296 75.9296 0 0 0 52.736 0.512v38.5024l-19.6608-7.5264a19.4048 19.4048 0 0 0-13.3632-0.1536l-19.712 7.5776z m27.136-116.1728a45.1584 45.1584 0 1 1 0 90.368 45.1584 45.1584 0 0 1 0-90.368z m3.7888-84.48H433.152a15.4112 15.4112 0 0 0 0 30.8224h156.928a15.4624 15.4624 0 0 0 13.312-23.0912 15.36 15.36 0 0 0-13.312-7.68z m16.2816-120.6784l60.928 60.8768h-59.904a0.9216 0.9216 0 0 1-1.024-0.9728V308.736z" fill="#FF6A39" p-id="3237"></path></svg>