<svg class="icon" viewBox="0 0 1024 1024" xmlns="http://www.w3.org/2000/svg" width="200" height="200"><defs><style/></defs><path d="M491.253 22.26C219.67 22.26 1.513 240.418 1.513 512s218.157 489.74 489.74 489.74S980.992 783.582 980.992 512 758.383 22.26 491.252 22.26z" fill="#FF6A39"/><path d="M326.79 604.383a244.87 244.87 0 11320.333 7.435l-.044 73.104a66.783 66.783 0 01-66.783 66.783H402.21a66.783 66.783 0 01-66.782-66.783v-73.06l-8.637-7.48zm164.463-381.774a200.348 200.348 0 00-120.209 360.626l8.905 6.678v95.01a22.26 22.26 0 0022.26 22.26h178.087a22.26 22.26 0 0022.261-22.26l.045-95.01 8.904-6.678a200.348 200.348 0 00-120.209-360.626zm-133.565 618.14h267.13a22.26 22.26 0 000-44.522h-267.13a22.26 22.26 0 100 44.522z" fill="#FFF"/><path d="M533.37 319.265c47.861 19.19 75.999 57.3 85.571 117.137a22.26 22.26 0 1043.943-7.034c-11.887-74.708-49.909-126.13-112.951-151.419a22.26 22.26 0 00-16.563 41.316z" fill="#FFF"/></svg>