<svg class="icon" viewBox="0 0 1024 1024" xmlns="http://www.w3.org/2000/svg" width="16" height="16"><path d="M511.999.002a511.999 511.999 0 10511.999 512 510.51 510.51 0 00-512-512z" fill="#FF6A39"/><path d="M366.87 643.306h331.31V371.155H325.817V674.91zm16.105 45.335L279.272 768V348.487a22.993 22.993 0 0123.273-22.667h418.908a22.993 22.993 0 0123.273 22.667v317.486a22.993 22.993 0 01-23.273 22.668zm105.751-113.385h46.546v45.335h-46.546zm-56.599-117.62a81.268 81.268 0 0190.577-63.162A79.22 79.22 0 01512 552.59h-23.273v-45.242H512a34.071 34.071 0 10-34.211-40.681l-45.661-8.89z" fill="#FFF"/></svg>