<svg class="icon" viewBox="0 0 1024 1024" xmlns="http://www.w3.org/2000/svg" width="16" height="16"><path d="M511.999.002a511.999 511.999 0 10511.999 512 510.51 510.51 0 00-512-512z" fill="#FF6A39"/><path d="M536.249 423.053l32.582 32.582a160.07 160.07 0 010 226.396l-8.1 8.053A160.256 160.256 0 01334.104 463.5l32.581 32.582A114.315 114.315 0 10528.383 657.78l8.099-8.099a114.315 114.315 0 000-161.652L503.9 455.45l32.582-32.35zm153.6 137.448l-32.35-32.349A114.315 114.315 0 10495.849 366.5l-8.1 8.1a114.315 114.315 0 000 161.651l32.582 32.582-32.581 32.35-32.35-32.35a160.07 160.07 0 010-226.397l8.1-8.052a160.116 160.116 0 11226.396 226.397z" fill="#FFF"/></svg>