<svg class="icon" viewBox="0 0 1024 1024" xmlns="http://www.w3.org/2000/svg" width="200" height="200"><defs><style/></defs><path d="M512 42.667C251.733 42.667 42.667 251.733 42.667 512S251.733 981.333 512 981.333 981.333 772.267 981.333 512c0-256-209.066-469.333-469.333-469.333z" fill="#FF6A39"/><path d="M512 789.333a277.333 277.333 0 100-554.666 277.333 277.333 0 000 554.666zm0-42.666a234.667 234.667 0 110-469.334 234.667 234.667 0 010 469.334z" fill="#FFF"/><path d="M257.536 533.333h512v-42.666h-512z" fill="#FFF"/><path d="M490.667 256v512h42.666V256z" fill="#FFF"/><path d="M496.085 241.792C317.91 441.259 317.91 625.451 497.92 784l28.16-32C364.8 609.92 364.8 452.779 527.915 270.208l-31.83-28.416z" fill="#FFF"/><path d="M522.496 241.792C700.672 441.259 700.672 625.451 520.661 784l-28.16-32c161.28-142.08 161.28-299.221-1.834-481.792l31.829-28.416z" fill="#FFF"/><path d="M314.112 337.621c134.699 109.099 270.123 109.099 399.19-.298l-27.606-32.555c-113.237 96-225.792 96-344.747-.299l-26.837 33.152zm0 353.494c134.699-109.056 270.123-109.056 399.19.298l-27.606 32.555c-113.237-96-225.792-96-344.747.299l-26.837-33.152z" fill="#FFF"/></svg>