<svg t="1631071915604" class="icon" viewBox="0 0 1024 1024" version="1.1" xmlns="http://www.w3.org/2000/svg" p-id="2277" width="64" height="64"><path d="M511.998836 0.002327C229.235843 0.002327 0 229.23817 0 512.001164s229.235843 511.998836 511.998836 511.998836 511.998836-229.235843 511.998837-511.998836A510.509385 510.509385 0 0 0 511.998836 0.002327z" fill="#FF6A39" p-id="2278"></path><path d="M516.187918 256.001745l-4.189082 0.372363-1.629087 0.372363 5.864714-0.232727c-28.159936 0-54.551149 13.591242-70.842021 36.584644l-4.514899 7.074893c-6.935257 12.101791-10.751976 25.599942-11.357065 39.237729l-0.046545 1.629088H368.080618c-36.212281 0-65.535851 29.370115-65.535851 65.582396v88.249981a23.272674 23.272674 0 0 0 27.182484 22.946857l3.770173-0.977452a40.122091 40.122091 0 1 1 5.585442 77.218733l-5.585442-1.535996a23.272674 23.272674 0 0 0-30.952657 21.969405v87.831073A65.535851 65.535851 0 0 0 368.080618 768.000582h88.249981a23.272674 23.272674 0 0 0 22.946857-27.275575l-1.023997-3.770173a40.261727 40.261727 0 1 1 77.404915-5.585442l-1.535997 5.585442a23.272674 23.272674 0 0 0 21.922859 31.045748h88.110345c17.40796 0 34.117741-6.935257 46.405713-19.269775l4.328718-4.79417c9.588342-11.729428 14.847966-26.437758 14.801421-41.658088v-61.300224l5.492351-0.232727a86.76053 86.76053 0 0 0 62.324222-138.146595l-4.794171-5.911259a86.807075 86.807075 0 0 0-57.530051-28.858116l-5.492351-0.279272V406.203586c0-17.361415-6.888712-34.071195-19.176684-46.359167l-4.840716-4.328718a65.535851 65.535851 0 0 0-41.518452-14.894512h-61.43986v-1.582541A86.76053 86.76053 0 0 0 516.187918 256.001745z m-5.538897 47.476256l8.843617-0.69818-3.397811-0.232727a40.215181 40.215181 0 0 1 39.377365 48.314072l-1.489451 5.30617a23.272674 23.272674 0 0 0 21.969405 31.045748h88.203435a18.990502 18.990502 0 0 1 18.990503 18.990502v88.249981a23.272674 23.272674 0 0 0 27.322119 22.946857l3.770174-1.023998a40.261727 40.261727 0 1 1 5.585442 77.35837l-5.585442-1.535996a23.272674 23.272674 0 0 0-31.092293 21.876313v88.249982c0 5.119988-2.00145 9.960705-5.585442 13.544696l-2.839266 2.373813a18.990502 18.990502 0 0 1-10.565795 3.211629h-61.253679l-0.232726-5.492351a86.76053 86.76053 0 0 0-138.10005-62.231131l-5.911259 4.747625c-16.895962 14.987602-26.996302 35.700282-28.904662 57.483506l-0.279272 5.492351H368.080618a18.990502 18.990502 0 0 1-13.451606-5.585442l-2.327267-2.885811a18.990502 18.990502 0 0 1-3.211629-10.565795v-61.207133l5.492351-0.232727a86.620894 86.620894 0 0 0 61.905314-137.774232l-4.747626-5.864714a86.667439 86.667439 0 0 0-57.157688-28.951207l-5.492351-0.279272V406.622494c0-10.519249 8.517799-18.990502 18.990502-18.990502h88.249981a23.272674 23.272674 0 0 0 22.900312-27.229029l-0.977452-3.816719a40.168636 40.168636 0 0 1 32.395562-53.154788z" fill="#FFFFFF" p-id="2279"></path></svg>