<svg class="icon" viewBox="0 0 1024 1024" xmlns="http://www.w3.org/2000/svg" width="128" height="128"><defs><style/></defs><path d="M320 332.8a8.533 8.533 0 00-8.533 8.533V512c0 4.693 3.84 8.533 8.533 8.533h170.667A8.533 8.533 0 00499.2 512V341.333a8.533 8.533 0 00-8.533-8.533H320zm0-34.133h170.667a42.667 42.667 0 0142.666 42.666V512a42.667 42.667 0 01-42.666 42.667H320A42.667 42.667 0 01277.333 512V341.333A42.667 42.667 0 01320 298.667z" fill="#FFF"/><path d="M469.333 418.133a8.533 8.533 0 00-8.533 8.534v256c0 4.693 3.84 8.533 8.533 8.533h256a8.533 8.533 0 008.534-8.533v-256a8.533 8.533 0 00-8.534-8.534h-256zm0-34.133h256A42.667 42.667 0 01768 426.667v256a42.667 42.667 0 01-42.667 42.666h-256a42.667 42.667 0 01-42.666-42.666v-256A42.667 42.667 0 01469.333 384z" fill="#FFF"/><path d="M512 42.667C251.733 42.667 42.667 251.733 42.667 512S251.733 981.333 512 981.333 981.333 772.267 981.333 512 772.267 42.667 512 42.667zM507.733 729.6H307.2c-21.333 0-38.4-17.067-38.4-38.4s17.067-38.4 38.4-38.4h200.533c21.334 0 38.4 17.067 38.4 38.4s-17.066 38.4-38.4 38.4zm123.734-179.2H307.2c-21.333 0-38.4-17.067-38.4-38.4s17.067-38.4 38.4-38.4h324.267c21.333 0 38.4 17.067 38.4 38.4s-17.067 38.4-38.4 38.4zm89.6-179.2H307.2c-21.333 0-38.4-17.067-38.4-38.4s17.067-38.4 38.4-38.4h413.867c21.333 0 38.4 17.067 38.4 38.4s-17.067 38.4-38.4 38.4z" fill="#FF6A39"/></svg>