<svg class="icon" viewBox="0 0 1024 1024" xmlns="http://www.w3.org/2000/svg" width="200" height="200"><defs><style/></defs><path d="M853.358 0H170.642A171.008 171.008 0 000 170.423v794.624c0 52.809 63.122 78.409 100.718 41.691L220.16 887.515c23.186-22.893 54.418-35.84 87.04-35.766h546.158A171.008 171.008 0 001024 681.399V170.423A170.423 170.423 0 00853.358 0zM768 638.83a42.203 42.203 0 01-42.642 42.569 38.18 38.18 0 01-17.116-3.365 38.18 38.18 0 01-22.162-11.922L341.358 321.975V638.83a42.203 42.203 0 01-42.716 42.642A42.203 42.203 0 01256 638.83V224.037a47.982 47.982 0 0111.922-41.765 46.446 46.446 0 0166.56 0l348.16 347.502V212.919c0-23.845 18.798-42.57 42.716-42.57 23.844 0 42.642 18.725 42.642 42.57v425.91z" fill="#20A0FF"/></svg>