<?xml version="1.0" standalone="no"?><!DOCTYPE svg PUBLIC "-//W3C//DTD SVG 1.1//EN" "http://www.w3.org/Graphics/SVG/1.1/DTD/svg11.dtd"><svg t="1593395068689" class="icon" viewBox="0 0 1195 1024" version="1.1" xmlns="http://www.w3.org/2000/svg" p-id="6720" xmlns:xlink="http://www.w3.org/1999/xlink" width="56.015625" height="48"><defs><style type="text/css"></style></defs><path d="M1133.861547 729.173333h-692.906667a65.28 65.28 0 0 1 0-130.304h692.906667a65.28 65.28 0 0 1 0 130.304z m0-304.042666h-692.906667a65.28 65.28 0 0 1 0-130.304h692.906667a65.28 65.28 0 0 1 0 130.304z m-4.352-293.205334H68.47488A67.242667 67.242667 0 0 1 0.037547 68.949333 65.194667 65.194667 0 0 1 65.232213 1.621333h1061.034667A67.242667 67.242667 0 0 1 1194.704213 64.597333a65.194667 65.194667 0 0 1-65.194666 67.242667zM0.037547 728.064V295.936L303.056213 512 0.12288 728.064z m65.194666 164.010667h1061.034667a67.242667 67.242667 0 0 1 68.437333 62.976 65.194667 65.194667 0 0 1-65.194666 67.328H68.47488A67.242667 67.242667 0 0 1 0.037547 959.402667a65.194667 65.194667 0 0 1 65.194666-67.242667z" fill="#20A0FF" p-id="6721"></path></svg>