<svg class="icon" viewBox="0 0 1137 1024" xmlns="http://www.w3.org/2000/svg" width="222.07" height="200"><defs><style/></defs><path d="M851.172 882.29c0 35.214-28.843 63.886-64.228 63.886H324.096a64.17 64.17 0 01-64.284-63.886V204.004h591.36V882.29zM388.324 89.259c0-7.339 5.745-13.085 13.198-13.085h308.793c7.395 0 13.141 5.746 13.141 13.085v38.513H388.38V89.316zm655.53 38.513H800.085V89.316c0-49.152-40.39-89.316-89.77-89.316H401.522a89.714 89.714 0 00-89.77 89.316v38.456H67.128a38.57 38.57 0 100 77.028h115.314v677.49a141.255 141.255 0 00141.653 140.914h462.848A141.255 141.255 0 00928.597 882.29V204.004h115.257c21.447 0 38.685-17.238 38.685-38.514a37.888 37.888 0 00-38.685-37.718zM555.52 830.692c21.39 0 38.684-17.238 38.684-38.514v-409.6a38.514 38.514 0 00-38.684-38.514 38.57 38.57 0 00-38.684 38.514v409.6c0 21.276 17.237 38.514 38.684 38.514zm-180.338 0c21.39 0 38.685-17.238 38.685-38.514v-409.6a38.57 38.57 0 00-38.685-38.514 38.57 38.57 0 00-38.684 38.514v409.6a39.652 39.652 0 0038.684 38.514zm360.676 0a38.57 38.57 0 0038.741-38.514v-409.6a38.57 38.57 0 00-38.741-38.514 38.57 38.57 0 00-38.685 38.514v409.6c0 21.276 17.295 38.514 38.685 38.514z"/></svg>