<svg class="icon" viewBox="0 0 1024 1024" xmlns="http://www.w3.org/2000/svg" width="128" height="128"><defs><style/></defs><path d="M992 460.8c0-38.4-12.8-76.8-25.6-115.2-12.8-25.6-19.2-51.2-38.4-76.8-12.8-25.6-25.6-44.8-44.8-64-12.8-19.2-25.6-32-44.8-44.8-19.2-19.2-44.8-38.4-70.4-57.6-32-19.2-57.6-32-96-44.8-25.6-12.8-51.2-19.2-83.2-19.2-12.8 0-25.6 0-38.4-6.4h-89.6c-38.4 0-76.8 12.8-115.2 25.6C320 70.4 294.4 76.8 268.8 96c-25.6 12.8-44.8 25.6-64 44.8-19.2 12.8-32 25.6-44.8 44.8-19.2 19.2-38.4 44.8-57.6 70.4-19.2 32-32 57.6-44.8 96-12.8 25.6-19.2 51.2-19.2 83.2 0 12.8 0 25.6-6.4 38.4v89.6c0 38.4 12.8 76.8 25.6 115.2C70.4 704 76.8 729.6 96 755.2c12.8 25.6 25.6 44.8 44.8 64 12.8 19.2 25.6 32 44.8 44.8 19.2 19.2 44.8 38.4 70.4 57.6 32 19.2 57.6 32 96 44.8 25.6 12.8 51.2 19.2 83.2 19.2 12.8 0 25.6 0 38.4 6.4h89.6c38.4 0 76.8-12.8 115.2-25.6 25.6-12.8 51.2-19.2 76.8-38.4 25.6-12.8 44.8-25.6 64-44.8 19.2-12.8 32-25.6 44.8-44.8 19.2-19.2 38.4-44.8 57.6-70.4 19.2-32 32-57.6 44.8-96 12.8-25.6 19.2-51.2 19.2-83.2 0-12.8 0-25.6 6.4-38.4v-89.6zM537.6 761.6c-6.4 6.4-19.2 12.8-32 12.8s-19.2-6.4-32-12.8c-6.4-6.4-12.8-19.2-12.8-32s6.4-19.2 12.8-32c6.4-6.4 19.2-12.8 32-12.8s25.6 6.4 32 12.8c6.4 6.4 12.8 19.2 12.8 32s-6.4 25.6-12.8 32zM640 480c-6.4 6.4-25.6 25.6-57.6 51.2-12.8 12.8-25.6 25.6-32 38.4-6.4 12.8-12.8 32-12.8 51.2V640H480v-19.2c0-25.6 6.4-44.8 12.8-64 12.8-19.2 32-44.8 70.4-83.2l25.6-25.6c12.8-19.2 19.2-38.4 19.2-57.6 0-25.6-6.4-51.2-25.6-64-19.2-19.2-38.4-25.6-70.4-25.6-32 0-64 12.8-76.8 32-12.8 19.2-25.6 44.8-25.6 83.2H352c0-51.2 12.8-89.6 38.4-115.2 25.6-32 70.4-44.8 115.2-44.8s83.2 12.8 108.8 38.4c25.6 25.6 38.4 57.6 38.4 96 12.8 38.4 6.4 64-12.8 89.6z" fill="#20A0FF"/></svg>