<svg class="icon" viewBox="0 0 1024 1024" xmlns="http://www.w3.org/2000/svg" width="200" height="200"><defs><style/></defs><path d="M613.01 452.389c64.366 0 127.196-.293 189.952.292 13.751.146 28.014 1.902 40.96 6.071 43.593 14.043 72.631 64.366 62.903 110.226-23.186 109.203-47.908 217.966-70.948 327.168-6.364 30.428-14.702 58.515-41.253 77.678-14.629 10.533-29.696 18.87-48.567 18.87-166.985-.145-333.897-.072-500.882-.072-2.34 0-4.681-.366-8.777-.659-.293-5.12-.878-10.166-.878-15.14.146-160.183.439-320.439.366-480.695 0-10.533 2.633-14.41 13.897-16.238 92.745-14.994 169.91-100.132 177.152-193.975 1.975-25.6 2.121-51.419 13.092-75.922 28.526-63.854 105.838-66.852 147.164-28.38 19.31 18.067 29.988 40.449 34.523 66.268 11.703 66.121 10.24 131.657-7.826 196.535-.512 1.755-.439 3.657-.878 8.046zm-426.642 75.41c-.073-27.136-14.629-42.935-41.106-43.447a2514.065 2514.065 0 00-105.033 0c-25.162.658-40.01 16.165-40.01 41.399a103265.91 103265.91 0 000 425.764c0 25.966 15.653 40.887 41.546 41.034 32.621.292 65.243.146 97.792.073 32.914 0 46.811-14.19 46.811-47.616v-207.14c0-69.999.22-139.996 0-210.067zm569.783-158.135c26.478-10.825 52.736-21.943 79.433-32.11a28.745 28.745 0 0118.798-.146c26.624 10.24 52.882 21.43 79.287 32.33 20.699 8.484 29.037 2.34 27.209-19.75-2.34-28.086-4.974-56.1-6.29-84.187a33.06 33.06 0 016.948-20.26c17.774-22.382 36.645-43.886 55.077-65.756 12.288-14.628 9.216-24.868-9.143-29.476-28.087-7.022-56.467-13.166-84.407-20.7a30.866 30.866 0 01-16.311-11.849c-16.165-24.576-31.232-49.883-46.811-74.825-9.728-15.433-20.48-15.58-29.989-.22-15.214 24.576-30.574 49.226-45.202 74.24a26.405 26.405 0 01-18.579 13.459c-28.306 6.363-56.466 13.165-84.626 20.114-18.14 4.535-21.065 14.19-8.996 28.453 18.505 21.796 36.717 43.885 55.88 65.024 7.169 7.899 8.485 15.652 7.534 25.526-2.706 27.063-4.754 54.346-7.021 81.555-.951 21.577 6.875 26.916 27.209 18.578z" fill="#20A0FF"/></svg>