<?xml version="1.0" standalone="no"?><!DOCTYPE svg PUBLIC "-//W3C//DTD SVG 1.1//EN" "http://www.w3.org/Graphics/SVG/1.1/DTD/svg11.dtd"><svg t="1628049671510" class="icon" viewBox="0 0 1024 1024" version="1.1" xmlns="http://www.w3.org/2000/svg" p-id="3363" xmlns:xlink="http://www.w3.org/1999/xlink" width="200" height="200"><defs><style type="text/css"></style></defs><path d="M512 0c279.296 0 512 228.096 512 512s-228.096 512-512 512S0 795.904 0 512 228.096 0 512 0zM288.4096 609.4848a17.3056 17.3056 0 0 0-14.2848 31.5392l225.4336 101.5296a30.6176 30.6176 0 0 0 12.6464 2.7648 30.4128 30.4128 0 0 0 12.6976-2.56l225.4336-101.2736a17.2544 17.2544 0 0 0-14.08-31.5392l-223.7952 100.352zM288.256 508.8768a17.2544 17.2544 0 1 0-14.08 30.8224l225.4336 101.5296a30.6176 30.6176 0 0 0 12.6464 2.7648 30.6176 30.6176 0 0 0 12.4416-2.304l225.4336-101.2736a17.2544 17.2544 0 1 0-14.0288-31.5392l-223.8464 100.864z m236.2368-227.5328a30.6176 30.6176 0 0 0-25.088 0L273.92 382.6688a30.6176 30.6176 0 0 0 0 55.7056l225.6384 101.5808a30.4128 30.4128 0 0 0 25.088 0.2048l225.4336-101.3248a30.6176 30.6176 0 0 0 0-55.7056z m-12.6464 32.256l216.1664 98.304-215.7568 96.9728-215.9616-98.304 215.552-96.9728z" fill="#FF6A39" p-id="3364"></path></svg>