<svg t="1639469001885" class="icon" viewBox="0 0 1024 1024" version="1.1" xmlns="http://www.w3.org/2000/svg" p-id="3201" width="200" height="200"><path d="M877.714286 0h-731.428572C126.049524 0 109.714286 16.335238 109.714286 36.571429v950.857142c0 20.23619 16.335238 36.571429 36.571428 36.571429h731.428572c20.23619 0 36.571429-16.335238 36.571428-36.571429v-950.857142c0-20.23619-16.335238-36.571429-36.571428-36.571429z m-45.714286 941.714286H192v-229.717334h111.908571a221.744762 221.744762 0 0 0 67.535239 96.792381A221.354667 221.354667 0 0 0 512 859.428571a220.696381 220.696381 0 0 0 208.11581-147.431619h111.88419V640h-169.593905l-5.948952 28.233143c-13.726476 68.33981-74.50819 118.052571-144.457143 118.052571a147.894857 147.894857 0 0 1-144.579048-118.052571l-5.924571-28.233143H192V82.285714h640v859.428572zM292.571429 316.586667h438.857142a9.167238 9.167238 0 0 0 9.142858-9.167238v-54.857143a9.167238 9.167238 0 0 0-9.142858-9.142857h-438.857142a9.167238 9.167238 0 0 0-9.142858 9.142857v54.857143c0 5.046857 4.120381 9.142857 9.142858 9.142857z m0 182.857143h438.857142a9.167238 9.167238 0 0 0 9.142858-9.167239v-54.857142a9.167238 9.167238 0 0 0-9.142858-9.142858h-438.857142a9.167238 9.167238 0 0 0-9.142858 9.142858v54.857142c0 5.046857 4.120381 9.142857 9.142858 9.142858z" fill="#1890FF" p-id="3202"></path></svg>