<?xml version="1.0" standalone="no"?><!DOCTYPE svg PUBLIC "-//W3C//DTD SVG 1.1//EN" "http://www.w3.org/Graphics/SVG/1.1/DTD/svg11.dtd"><svg t="1628700313469" class="icon" viewBox="0 0 1027 1024" version="1.1" xmlns="http://www.w3.org/2000/svg" p-id="2104" xmlns:xlink="http://www.w3.org/1999/xlink" width="200.5859375" height="200"><defs><style type="text/css"></style></defs><path d="M510.334934 1023.998037A510.334934 510.334934 0 0 1 149.488879 152.817048a510.334934 510.334934 0 1 1 721.69211 721.69211A506.998129 506.998129 0 0 1 510.334934 1023.998037z m-236.67764-332.856146v11.77696a35.056084 35.056084 0 0 0 6.595098 23.55392 46.754531 46.754531 0 0 0 40.787538 23.55392h378.629265a52.917807 52.917807 0 0 0 45.027244-23.55392 140.263594 140.263594 0 0 0 2.355392-23.55392v-11.77696h-0.785131c-6.163276-70.190682-67.285698-130.999052-155.730668-154.906281a142.108651 142.108651 0 1 0-160.362939 0c-88.3272 23.985742-149.488879 84.833369-155.730668 155.02405z" fill="#FFFFFF" p-id="2105"></path></svg>