<svg class="icon" viewBox="0 0 1026 1024" xmlns="http://www.w3.org/2000/svg" width="200.391" height="200"><defs><style/></defs><path d="M205.654 1024a87.803 87.803 0 01-89.778-85.9V313.31a51.218 51.218 0 01102.436 0v551.328a62.633 62.633 0 0063.95 61.096h460.965a62.56 62.56 0 0063.876-61.096V313.31a51.218 51.218 0 01102.437 0V938.1a87.803 87.803 0 01-89.852 85.9zM577.06 827.834V350.04a51.218 51.218 0 01102.436 0v477.794a51.218 51.218 0 01-102.436 0zm-230.629 0V350.04a51.218 51.218 0 01102.437 0v477.794a51.218 51.218 0 01-102.437 0zM51.926 215.41a49.243 49.243 0 110-98.34h922.295a49.243 49.243 0 110 98.34zm307.31-117.07a49.17 49.17 0 110-98.34h307.31a49.17 49.17 0 110 98.34z"/></svg>