<svg class="icon" width="200" height="200" viewBox="0 0 1024 1024" xmlns="http://www.w3.org/2000/svg"><path d="M796.448 1024H227.552A167.36 167.36 0 0163.2 859.648V164.352A167.36 167.36 0 01227.552 0h568.896A167.36 167.36 0 01960.8 164.352v695.296A167.36 167.36 0 01796.448 1024zM227.552 75.84a86.4 86.4 0 00-88.512 88.512v695.296a86.4 86.4 0 0088.512 88.512h568.896a86.4 86.4 0 0088.512-88.512V164.352a86.4 86.4 0 00-88.512-88.512H227.552zm465.536 258.368h-377.28a34.752 34.752 0 01-32.32-32.32 34.752 34.752 0 0132.32-32.32h377.28a34.752 34.752 0 0132.32 32.32 31.04 31.04 0 01-32.32 32.32zm0 210.112h-377.28a32.32 32.32 0 110-64.64h377.28a34.752 34.752 0 0132.32 32.32 31.04 31.04 0 01-32.32 32.32zm0 210.112h-377.28a32.32 32.32 0 010-64.64h377.28a34.752 34.752 0 0132.32 32.32 31.04 31.04 0 01-32.32 32.32z"/></svg>