<svg class="icon" viewBox="0 0 1026 1024" xmlns="http://www.w3.org/2000/svg"><path d="M323.203 833.829l51.712-51.712 102.4 102.4v-445.66h73.143v445.148l102.4-102.4 51.712 51.712L513.374 1024zm336.457-102.4v-73.143h128A164.425 164.425 0 00798.631 329.8l-60.342-4.096-7.315-60.05a219.429 219.429 0 00-435.127 0l-7.314 60.05-60.416 4.096a164.425 164.425 0 0011.045 328.485h127.927v73.143h-128a237.568 237.568 0 01-15.872-474.624 292.571 292.571 0 01580.388 0 237.568 237.568 0 01-15.872 474.624z"/></svg>