<svg class="icon" width="64" height="64" viewBox="0 0 1024 1024" xmlns="http://www.w3.org/2000/svg"><path d="M890.028 205.54C775.34 155.932 674.135 96.142 590.338 28.217a123.733 123.733 0 00-157.298 0C349.185 96.085 247.98 155.876 133.235 205.54a32.597 32.597 0 00-19.228 30.094v267.548c0 231.595 339.399 473.77 397.653 473.77s397.653-242.175 397.653-473.77V235.634a32.597 32.597 0 00-19.285-30.094zM637.441 475.08L498.007 681.87c-8.647 12.914-27.876 6.372-27.876-9.443v-128.57a15.872 15.872 0 00-15.36-16.27h-56.32a15.303 15.303 0 01-13.71-8.817 17.067 17.067 0 011.138-16.953l139.434-206.791c8.704-12.857 27.876-6.372 27.876 9.5v128.512c0 8.989 6.94 16.27 15.417 16.27h56.32c12.515 0 19.797 15.02 12.515 25.771z"/></svg>