<?xml version="1.0" encoding="UTF-8"?>
<svg width="16px" height="14px" viewBox="0 0 16 14" version="1.1" xmlns="http://www.w3.org/2000/svg" xmlns:xlink="http://www.w3.org/1999/xlink">
    <g id="DSMP-2.1.0" stroke="none" stroke-width="1" fill="none" fill-rule="evenodd">
        <g id="我的已办" transform="translate(-1404.000000, -29.000000)" fill="#3CD0BE" fill-rule="nonzero">
            <g id="退出备份-2" transform="translate(1404.000000, 29.000000)">
                <path d="M9.10567389,9.33163937 C9.04865344,9.33163937 9.00417438,9.33163937 8.95985111,9.33163937 C7.43611206,9.33163937 5.91241975,9.33180112 4.38864955,9.33163937 C4.16274887,9.3315585 4.01552394,9.22407573 3.97922404,9.03175517 C3.97208869,8.99333958 3.97275861,8.952983 3.97275861,8.91367779 C3.97250198,7.50782906 3.97250198,6.10206121 3.97250198,4.69622866 C3.97250198,4.42958405 4.11169531,4.28772944 4.37252492,4.28772944 C5.90315004,4.28764856 7.4338219,4.28764856 8.96452492,4.28764856 C9.00573232,4.28764856 9.0472513,4.28764856 9.10567389,4.28764856 C9.10567389,4.24203511 9.10567389,4.2009183 9.10567389,4.15967209 C9.10567389,2.90850473 9.1055181,1.65724033 9.10582969,0.405959746 C9.10582969,0.233777043 9.18489493,0.0964514291 9.3187995,0.0438503814 C9.47287935,-0.0167249334 9.60958821,0.0111769139 9.72573232,0.138587262 C9.79233407,0.211649665 9.86485598,0.278856723 9.93324936,0.349913427 C10.7961121,1.24382391 11.658819,2.13813877 12.521448,3.03204926 C13.6294519,4.17990699 14.7375337,5.32747358 15.8455376,6.47528279 C16.0299972,6.66617995 16.0310098,6.8675585 15.8487313,7.05640143 C14.2630644,8.69986067 12.6775687,10.3434655 11.0914344,11.9862777 C10.6403341,12.4534921 10.186819,12.9178759 9.73610817,13.3854947 C9.62011985,13.5059983 9.49073329,13.5588097 9.33236912,13.4963742 C9.17836717,13.435718 9.10584527,13.3098767 9.10584527,13.1119757 C9.10561158,11.9003886 9.10568947,10.6886396 9.10568947,9.47706865 C9.10567389,9.43426964 9.10567389,9.39156769 9.10567389,9.33163937 Z M6.25734673,0.0836570168 C6.25734673,0.559444169 6.25734673,1.02528371 6.25734673,1.50425733 C6.21244702,1.50425733 6.17201859,1.50425733 6.13162131,1.50425733 C4.97150447,1.50425733 3.81138762,1.50409558 2.65128636,1.5043382 C1.91614322,1.50445143 1.37479171,2.06766437 1.37476055,2.83241761 C1.3746515,5.47867733 1.3793253,8.1249047 1.37169142,10.7709541 C1.36958821,11.4710883 1.88261644,11.9755052 2.35692998,12.0676217 C2.46173232,12.0877596 2.57000885,12.0968984 2.67669629,12.0971411 C3.82640612,12.0992438 4.9761627,12.0984351 6.12591927,12.0984351 C6.16676834,12.0984351 6.20766416,12.0984351 6.25525909,12.0984351 C6.25525909,12.5727665 6.25525909,13.0384443 6.25525909,13.5109155 C6.23890077,13.5143123 6.21981605,13.5219145 6.2006846,13.5219145 C4.97821917,13.5219145 3.7556291,13.5348545 2.53347526,13.516415 C1.33900593,13.4986226 0.281245461,12.5574811 0.0532883038,11.3393431 C0.0211169309,11.1677265 0.00538177994,10.9900443 0.00519482765,10.8151927 C0.00223474976,8.14009301 -0.00457342941,5.46512269 0.0067839221,2.79023325 C0.0115356261,1.67291389 0.54621917,0.870828784 1.47996795,0.349557577 C1.80939346,0.165567135 2.17328051,0.082476243 2.54835354,0.081505744 C3.76038081,0.0781089973 4.97242365,0.0802117452 6.18448207,0.0802926202 C6.20496893,0.0803087951 6.22540904,0.0821689183 6.25734673,0.0836570168 Z" id="Shape"></path>
            </g>
        </g>
    </g>
</svg>