<svg class="icon" viewBox="0 0 1063 1024" xmlns="http://www.w3.org/2000/svg" width="132.875" height="128"><defs><style/></defs><path d="M0 900.923c0 43.973 101.337 84.598 265.846 106.585 164.51 21.986 367.183 21.986 531.692 0s265.847-62.622 265.847-106.585c0-67.978-238.05-123.077-531.693-123.077S0 832.946 0 900.923z" fill="#EAEAEA"/><path d="M66.914 29.538h63.095c4.233 0 7.837 2.265 7.837 4.924s-3.604 4.923-7.837 4.923H66.914c-4.233 0-7.837-2.265-7.837-4.923s3.387-4.924 7.837-4.924z" fill="#D2D2D2"/><path d="M96 0c4.194 0 7.394 3.446 7.394 7.513v60.494a7.434 7.434 0 01-7.384 7.513 7.562 7.562 0 01-7.395-7.513V7.513C88.615 3.249 92.012 0 96 0zm425.797 60.091l28.75 7.916c3.998 1.015 6.598 5.081 5.603 9.138-1.004 4.056-4.992 6.695-8.99 5.68-.196 0-.393 0-.393-.196l-28.76-7.916a7.454 7.454 0 01-5.2-9.344c.798-4.057 4.992-6.292 8.99-5.278zm52.923-42.634l7.788 29.243c1.005 4.057-1.2 8.32-5.189 9.334-3.997 1.015-8.192-1.22-9.186-5.277l-7.788-29.44a7.7 7.7 0 015.189-9.344c4.194-.807 8.192 1.625 9.186 5.484zm62.72 25.384l-21.17 21.307a7.454 7.454 0 01-10.594.413 7.759 7.759 0 01-.394-10.762l.394-.403 20.973-21.317a7.454 7.454 0 0110.584-.414 7.759 7.759 0 01.394 10.762c0 .197 0 .414-.197.414zM959.567 66.59c-24.763 0-44.731 20.5-44.731 45.47 0 25.176 20.174 45.478 44.73 45.478 24.774 0 44.742-20.5 44.742-45.479 0-25.167-19.968-45.47-44.741-45.47zm0 75.716c-16.571 0-29.755-13.587-29.952-30.247 0-16.837 13.38-30.247 29.755-30.444 16.58 0 29.755 13.597 29.962 30.247 0 16.847-13.391 30.454-29.765 30.454z" fill="#F1F2F6"/><path d="M935.385 325.849l-443.077-60.003v238.218l443.077 47.32z" fill="#C2C2C2"/><path d="M137.846 342.942l354.462-77.096v267.52l-354.462 77.096z" fill="#D1D1D1"/><path d="M551.385 431.557l384-106.634v503.828l-384 106.634z" fill="#DFDFDF"/><path d="M137.846 344.615l413.539 89.049v501.72L137.846 834.207z" fill="#F4F4F4"/><path d="M551.385 431.803l-413.48-87.188-88.674 175.941 428.327 99.752 73.827-188.505z" fill="#EBEBEB"/><path d="M551.385 427.057l387.77-106.978 104.537 178.51L670.72 620.309l-119.335-193.25z" fill="#D0D0D0"/><path d="M761.255 333.42s16.591-104.192 103.346-156.19c0 0 7.591 8.567 22.587 27.895 0-.197-39.582-6.38-125.933 128.295zm-206.818 1.35s1.585-55.986 43.382-182.194c0 0 7.562 8.389 22.489 27.313.197 0-15.725 13.46-65.871 154.88zm-145.083-10.142S362.388 189.243 247.168 128c0 0-19.298 26.338-40.399 34.718-.197.196 132.333 45.45 202.585 161.91zM96 0c4.194 0 7.394 3.446 7.394 7.513v60.494a7.434 7.434 0 01-7.384 7.513 7.562 7.562 0 01-7.395-7.513V7.513C88.615 3.249 92.012 0 96 0zm425.797 60.091l28.75 7.916c3.998 1.015 6.598 5.081 5.603 9.138-1.004 4.056-4.992 6.695-8.99 5.68-.196 0-.393 0-.393-.196l-28.76-7.916a7.454 7.454 0 01-5.2-9.344c.798-4.057 4.992-6.292 8.99-5.278zm52.923-42.634l7.788 29.243c1.005 4.057-1.2 8.32-5.189 9.334-3.997 1.015-8.192-1.22-9.186-5.277l-7.788-29.44a7.7 7.7 0 015.189-9.344c4.194-.807 8.192 1.625 9.186 5.484zm62.72 25.384l-21.17 21.307a7.454 7.454 0 01-10.594.413 7.759 7.759 0 01-.394-10.762l.394-.403 20.973-21.317a7.454 7.454 0 0110.584-.414 7.759 7.759 0 01.394 10.762c0 .197 0 .414-.197.414zM959.567 66.59c-24.763 0-44.731 20.5-44.731 45.47 0 25.176 20.174 45.478 44.73 45.478 24.774 0 44.742-20.5 44.742-45.479 0-25.167-19.968-45.47-44.741-45.47zm0 75.716c-16.571 0-29.755-13.587-29.952-30.247 0-16.837 13.38-30.247 29.755-30.444 16.58 0 29.755 13.597 29.962 30.247 0 16.847-13.391 30.454-29.765 30.454z" fill="#D2D2D2"/></svg>