<svg t="1639364051735" class="icon" viewBox="0 0 1064 1024" version="1.1" xmlns="http://www.w3.org/2000/svg" p-id="3622" width="200" height="200"><path d="M572.86656 786.26816c0-22.85568-18.35008-41.3696-40.96-41.3696-22.56896 0-40.91904 18.51392-40.91904 41.3696s18.35008 41.3696 40.96 41.3696c22.56896 0 40.91904-18.51392 40.91904-41.3696z m-81.83808-120.4224V327.4752c0-20.80768 18.35008-37.6832 40.96-37.6832 22.528 0 40.87808 16.87552 40.87808 37.6832v338.45248c0 20.84864-18.30912 37.6832-40.91904 37.6832-22.60992-0.08192-40.91904-16.83456-40.91904-37.6832z m0.4096-546.28352L93.7984 831.0784c-12.4928 23.63392-15.40096 44.89216-7.94624 58.28608 7.45472 13.35296 26.37824 21.01248 51.97824 21.01248h788.19328c25.6 0 44.60544-7.61856 51.97824-21.01248 7.3728-13.35296 4.5056-34.57024-7.94624-58.1632L571.96544 119.52128c-12.12416-22.97856-27.15648-36.70016-40.22272-36.70016-13.1072 0-28.09856 13.7216-40.26368 36.70016zM132.58752 993.11616c-53.61664 0-96.58368-21.13536-118.08768-58.08128-21.504-36.90496-18.88256-85.11488 7.20896-132.21888l403.0464-727.98208C450.9696 27.36128 489.96352 0.12288 531.70176 0.12288c41.7792 0 80.77312 27.19744 107.06944 74.62912l403.456 728.14592c26.13248 47.104 28.83584 95.31392 7.24992 132.21888-21.46304 36.90496-64.55296 57.99936-118.04672 57.99936H132.5056h0.04096z" fill="#FF9000" p-id="3623"></path></svg>