<svg class="icon" viewBox="0 0 1024 1024" xmlns="http://www.w3.org/2000/svg" width="128" height="128"><defs><style/></defs><path d="M865.28 1024H158.72C71.68 1024 0 952.32 0 865.28V158.72C0 71.68 71.68 0 158.72 0h706.56C952.32 0 1024 71.68 1024 158.72v706.56c0 92.16-71.68 158.72-158.72 158.72z" fill="#20A0FF"/><path d="M656.29 312.692a209.175 209.175 0 00-297.052 0 209.175 209.175 0 000 297.053c38.493 38.494 88.017 60.51 148.526 60.51 60.51 0 110.034-22.016 148.527-60.51 38.493-38.493 60.509-87.97 60.509-148.48 5.492-60.509-22.016-110.08-60.51-148.573zM315.253 653.731c-49.524-49.478-82.525-121.018-82.525-192.466 0-154.065 121.018-275.083 275.084-275.083 153.972 0 274.99 121.018 274.99 275.083 0 76.987-33 142.988-82.525 192.466-49.477 49.524-121.018 82.525-192.512 82.525s-143.034-33-192.512-82.525zm511.535 126.557a42.03 42.03 0 01-27.462 10.985 42.03 42.03 0 01-27.508-10.985L716.8 725.271a42.03 42.03 0 01-10.985-27.508c0-22.016 16.477-38.493 38.493-38.493 10.985 0 22.016 5.492 27.462 10.985l55.063 55.016a42.03 42.03 0 0110.985 27.462c0 11.031 0 22.016-10.985 27.555z" fill="#FFF"/></svg>