<svg class="icon" viewBox="0 0 1093 1024" xmlns="http://www.w3.org/2000/svg" width="68.313" height="64"><defs><style/></defs><path d="M495.521 770.774h110.135V286.266H825.84L550.588 0 275.336 286.266H495.52z"/><path d="M1046.11 297.28a52.04 52.04 0 00-55.067 55.067v506.451a58.85 58.85 0 01-55.067 55.067h-770.69a58.85 58.85 0 01-55.068-55.067V352.347a52.04 52.04 0 00-55.067-55.068A52.04 52.04 0 00.083 352.347v506.451A169.322 169.322 0 00165.285 1024h759.593a169.322 169.322 0 00165.202-165.202V352.347c11.35-33.04-10.93-55.068-43.97-55.068z"/></svg>