<svg class="icon" viewBox="0 0 1024 1024" xmlns="http://www.w3.org/2000/svg" width="200" height="200"><defs><style/></defs><path d="M240.11 240.4a30.044 30.044 0 000 60.111h420.71a30.044 30.044 0 000-60.112zm180.312 300.438H240.11a30.044 30.044 0 000 60.112h180.312a30.044 30.044 0 000-60.112zM360.31 901.51H149.954a60.112 60.112 0 01-60.112-60.112V120.2a60.112 60.112 0 0160.112-60.112h601.023a60.112 60.112 0 0160.112 60.112v270.467a30.044 30.044 0 1060.112 0V90.156A90.156 90.156 0 00781.069 0H119.91a90.156 90.156 0 00-90.155 90.156v781.237a90.156 90.156 0 0090.155 90.156h240.4a30.044 30.044 0 000-60.112zm620.24 60.112l-89.53-87.142a211.561 211.561 0 10-47.476 47.477l87.744 88.95a35.47 35.47 0 1049.913-49.888zM720.933 901.51a150.244 150.244 0 11150.243-150.244A150.244 150.244 0 01720.933 901.51zm223.569 120.2z"/></svg>