<svg class="icon" viewBox="0 0 1024 1024" xmlns="http://www.w3.org/2000/svg" width="200" height="200"><defs><style/></defs><path d="M512 53.333A202.667 202.667 0 11309.333 256 202.901 202.901 0 01512 53.333zm0 341.334A138.667 138.667 0 10373.333 256 138.816 138.816 0 00512 394.667zM896 970.667a32 32 0 01-32-32 352 352 0 00-704 0 32 32 0 01-64 0 416 416 0 01799.296-161.942A413.419 413.419 0 01928 938.667a32 32 0 01-32 32z"/><path d="M512 970.667a32 32 0 01-24.981-12.011l-85.334-106.667a32 32 0 01-5.589-29.397l85.333-277.333a32 32 0 0161.163 0l85.333 277.333a32 32 0 01-5.589 29.397l-85.333 106.667A32 32 0 01512 970.666zm-49.77-145.43l49.77 62.23 49.77-62.208L512 663.467z"/></svg>