<svg class="icon" viewBox="0 0 1024 1024" xmlns="http://www.w3.org/2000/svg" width="200" height="200"><defs><style/></defs><path d="M512.205 0a35.72 35.72 0 0110.025 1.429L950.66 126.592a35.72 35.72 0 0125.694 34.292v256.662A613.697 613.697 0 01850.69 793.798a677.303 677.303 0 01-327.364 228.372 35.72 35.72 0 01-22.575 0 677.398 677.398 0 01-327.436-228.42A613.792 613.792 0 0147.628 417.427V160.884a35.72 35.72 0 0125.718-34.292L502.18 1.43A35.72 35.72 0 01512.205 0zm392.708 187.65L512.18 72.94 119.068 187.65v229.753a542.947 542.947 0 00110.995 332.96A603.862 603.862 0 00511.99 950.515a603.767 603.767 0 00281.88-200.033 542.947 542.947 0 00111.043-332.936z"/><path d="M511.99 214.321A154.788 154.788 0 11357.203 369.11 154.954 154.954 0 01511.99 214.32zm0 238.135a83.347 83.347 0 10-83.347-83.347 83.347 83.347 0 0083.347 83.347z"/><path d="M702.498 714.404a35.72 35.72 0 01-35.72-35.72 154.788 154.788 0 00-309.575 0 35.72 35.72 0 01-71.44 0 226.228 226.228 0 01452.456 0 35.72 35.72 0 01-35.72 35.72z"/></svg>