<svg class="icon" viewBox="0 0 1024 1024" xmlns="http://www.w3.org/2000/svg" width="200" height="200"><defs><style/></defs><path d="M938.667 736H85.333a32 32 0 01-32-32V149.333a32 32 0 0132-32h853.334a32 32 0 0132 32V704a32 32 0 01-32 32zm-821.334-64h789.334V181.333H117.333z"/><path d="M341.333 586.667a32 32 0 01-32-32v-85.334a32 32 0 0164 0v85.334a32 32 0 01-32 32zM512 864a32 32 0 01-32-32V704a32 32 0 0164 0v128a32 32 0 01-32 32zM512 586.667a32 32 0 01-32-32V384a32 32 0 0164 0v170.667a32 32 0 01-32 32zM682.667 586.667a32 32 0 01-32-32v-256a32 32 0 0164 0v256a32 32 0 01-32 32z"/><path d="M768 906.667H256a32 32 0 010-64h512a32 32 0 010 64z"/></svg>