<svg class="icon" viewBox="0 0 1024 1024" xmlns="http://www.w3.org/2000/svg" width="16" height="16"><path d="M664.804 320.455a39.822 39.822 0 015.404 79.303l-5.404.342H170.667a73.956 73.956 0 00-73.558 66.389l-.398 7.566v379.278a73.956 73.956 0 0066.39 73.558l7.566.398h682.666a73.956 73.956 0 0073.558-66.39l.398-7.566V512.284a39.822 39.822 0 0179.303-5.404l.341 5.404v341.05a153.6 153.6 0 01-143.929 153.315l-9.67.284H170.666A153.6 153.6 0 0117.35 863.004l-.284-9.67v-379.28a153.6 153.6 0 01143.929-153.202l9.67-.398h494.138z"/><path d="M483.499 17.067c138.012 0 256.057 93.184 279.95 220.501a39.822 39.822 0 01-78.28 14.734c-16.61-88.86-101.205-155.59-201.613-155.59-109.91 0-198.656 79.188-204.46 177.492l-.34 10.24v36.011H619.52A39.822 39.822 0 01659 354.873l.4 5.404a39.822 39.822 0 01-34.419 39.481l-5.404.342H199.11V284.444c0-148.309 127.943-267.377 284.388-267.377zM944.356 260.38a39.822 39.822 0 0160.7 51.2l-4.21 5.007L501.703 818.29a39.822 39.822 0 01-60.643-51.257l4.21-4.95L944.355 260.38z"/></svg>