<?xml version="1.0" standalone="no"?><!DOCTYPE svg PUBLIC "-//W3C//DTD SVG 1.1//EN" "http://www.w3.org/Graphics/SVG/1.1/DTD/svg11.dtd"><svg t="1630311470577" class="icon" viewBox="0 0 1024 1024" version="1.1" xmlns="http://www.w3.org/2000/svg" p-id="2872" width="48" height="48" xmlns:xlink="http://www.w3.org/1999/xlink"><defs><style type="text/css"></style></defs><path d="M514.2272 388.608c-67.5584 0-123.392 53.6064-123.392 121.1648s53.6064 123.392 121.1648 123.392c11.7248 0 25.6768-2.2272 37.4016-4.48 51.3792-16.1792 86.016-62.5152 88.2176-116.1216 0-68.1216-55.808-123.9552-123.392-123.9552z m65.3312 158.0032c-18.432 37.4272-65.3312 51.3792-99.9424 30.1568-25.6768-13.952-39.6544-39.6544-39.6544-67.584 0-41.856 34.6368-74.24 74.2656-74.24 11.7248 0 23.4496 2.2272 34.6112 9.4976 35.2 21.2224 49.152 65.3312 30.72 102.1696z m146.2784 258.5088c0 4.48-2.2272 4.48-4.4544 9.4976 44.1088-34.6112 83.7376-77.056 111.6672-125.6192 4.4544-32.384 7.2448-67.584 2.2272-102.1696-9.472-58.0864-32.384-113.92-72.0128-158.0288-32.384-37.4016-79.2832-62.5152-127.872-72.0128a171.0848 171.0848 0 0 1 65.3312 88.2176c23.4496 18.432 39.6288 39.6288 53.6064 65.3312 23.4496 49.1264 30.1312 99.9424 25.6768 153.5232a606.592 606.592 0 0 1-54.1696 141.2608z" p-id="2873"></path><path d="M663.296 793.3952c48.5888-53.5808 74.2656-127.8464 65.3312-199.8848-2.2272-25.6768-9.472-51.3536-23.4496-72.0128-4.4544 44.1088-13.952 79.2832-30.1312 99.9424h2.2272c0 6.7072 0 16.1792-4.48 23.4496-9.472 62.5408-46.336 121.1648-99.9424 155.776-62.5152 39.6288-135.1168 58.0608-209.3824 51.3536a319.9488 319.9488 0 0 0 185.9328 27.9296c41.8816-21.2224 81.536-49.152 113.92-86.528z" p-id="2874"></path><path d="M144.6144 551.6544A322.2016 322.2016 0 0 0 209.92 723.6096c9.472 7.2704 20.6592 13.952 32.384 21.2224 49.1264 30.1568 102.144 46.336 160.7936 51.3536 23.4496 0 46.336-2.2272 69.7856-6.6816 49.152-11.7248 91.008-39.6544 123.392-79.2832 4.48-9.4976 11.7248-18.432 18.432-27.904-13.952 6.656-30.1568 13.9264-46.336 18.4064-16.2048 4.4544-34.6112 9.472-53.6064 6.7072h-4.4544c-49.152 30.1312-109.44 39.6288-165.2736 21.1968-82.0736-23.4496-156.3392-93.2352-200.448-176.9728z" p-id="2875"></path><path d="M302.6176 207.1552c-58.0608 23.4496-102.1696 72.0128-118.3744 132.3264-2.2272 23.4496-4.4544 44.1088-4.4544 67.5584 0 60.288 16.1792 118.3488 44.1088 171.9552 37.4016 62.5408 102.1696 104.96 174.208 111.6672h27.904a184.3712 184.3712 0 0 1-81.5104-74.24c-49.152-23.4752-83.7632-67.584-97.7152-118.3744-11.7248-53.6064-11.7248-109.44 2.2272-163.0464 11.7248-46.336 27.904-88.2176 53.6064-127.8464z" p-id="2876"></path><path d="M309.888 312.1152c-27.904 65.3312-27.904 139.5712 2.2272 204.9024-2.2272-41.856 9.472-83.7376 34.6112-116.1216 4.48-41.8816 23.4496-81.536 49.152-113.92 32.3584-39.6288 77.056-69.7856 125.6192-83.7376 51.3536-13.952 104.96-18.432 158.0032-16.2048h16.2048c-53.6064-23.4496-109.44-39.6288-167.5264-46.336-39.6288 11.7248-74.24 25.6768-107.1872 46.336-48.5888 29.5936-85.9904 73.728-111.104 125.0816z" p-id="2877"></path><path d="M874.9312 502.528c2.2272 4.4544 4.4544 9.472 4.4544 13.9264v-6.6816c0-27.904-6.7072-123.392-44.1088-171.9808-23.4496-23.4496-53.6064-44.1088-83.7376-55.808-65.3312-32.4096-139.5968-41.9072-209.408-23.4752-48.5632 11.7248-90.4448 39.6544-121.1392 77.056 11.7248-6.7072 23.4496-11.7248 34.6112-13.952 9.472-2.2528 18.432-4.48 27.904-4.48 6.7072-2.2272 16.2048-2.2272 23.4752-2.2272 9.472 0 18.432 0 27.904 2.2272 23.4496-6.7072 46.336-11.7248 72.0384-11.7248 65.3312 2.2272 125.6192 25.6768 171.9552 69.7856 25.7024 23.4752 49.152 49.152 65.3312 79.3088 14.5152 13.3888 24.0128 29.568 30.72 48zM474.5984 93.2096V0C225.536 18.432 25.6768 211.6096 0 460.6208h93.2352A422.8608 422.8608 0 0 1 474.624 93.2608z" p-id="2878"></path><path d="M928.512 460.6208h93.2608C996.0704 218.88 805.7088 25.6768 563.3792 0v93.2352c190.3872 25.7024 341.6832 176.9984 365.1328 367.3856zM93.2352 549.4016H0C18.432 802.8928 221.1072 1005.5936 474.5984 1024v-93.2352c-202.1376-18.432-362.9312-179.2256-381.3632-381.3632z m837.5296 0c-18.432 197.6576-169.728 356.224-367.3856 379.136v93.2352C810.1632 996.0704 1005.568 798.4384 1024 549.376h-93.2352z" p-id="2879"></path></svg>