<svg class="icon" viewBox="0 0 1134 1024" xmlns="http://www.w3.org/2000/svg" width="221.484" height="200"><defs><style/></defs><path d="M96.865 276.757h940.973a96.865 96.865 0 0196.865 96.865v553.513a96.865 96.865 0 01-96.865 96.865H96.865A96.865 96.865 0 010 927.135V373.622a96.865 96.865 0 0196.865-96.865zm940.973 664.216a13.838 13.838 0 0013.838-13.838V373.622a13.838 13.838 0 00-13.838-13.838H96.865a13.838 13.838 0 00-13.838 13.838v553.513a13.838 13.838 0 0013.838 13.838z"/><path d="M290.595 0h553.513a41.514 41.514 0 0141.514 41.514V318.27a41.514 41.514 0 01-41.514 41.514H290.595a41.514 41.514 0 01-41.514-41.514V41.514A41.514 41.514 0 01290.595 0zm512 83.027H332.108v193.73h470.487zM401.297 498.162h332.108a41.514 41.514 0 0141.514 41.514V761.08a41.514 41.514 0 01-41.514 41.514H401.297a41.514 41.514 0 01-41.513-41.514V539.676a41.514 41.514 0 0141.513-41.514zm290.595 83.027H442.81v138.379h249.08z"/><path d="M1093.19 691.892H733.404a41.514 41.514 0 010-83.027h359.784a41.514 41.514 0 010 83.027zM401.297 691.892H41.514a41.514 41.514 0 010-83.027h359.783a41.514 41.514 0 010 83.027z"/><path d="M41.514 830.27A41.514 41.514 0 010 788.757V512a41.514 41.514 0 0183.027 0v276.757a41.514 41.514 0 01-41.513 41.513zM1093.19 830.27a41.514 41.514 0 01-41.514-41.513V512a41.514 41.514 0 0183.027 0v276.757a41.514 41.514 0 01-41.514 41.513z"/></svg>