<svg class="icon" viewBox="0 0 1024 1024" xmlns="http://www.w3.org/2000/svg" width="16" height="16"><defs><style/></defs><path d="M444.416 56.883c-117.248-1.485-219.75 98.56-221.798 222.31-1.024 69.735 29.798 133.377 83.353 178.381l15.667 9.575-16.179 6.041C158.976 528.333 58.931 666.726 56.883 824.832v2.56c0 58.778 47.719 106.496 106.547 106.496h.103l288.46 3.584c9.575 0 25.242-3.482 25.754-22.63.512-22.221-15.667-24.986-24.73-24.986l-288.511-3.584c-27.75 0-59.392-31.642-59.392-59.392v-1.536C107.11 657.613 243.2 512.87 404.173 506.061l44.288.512c37.888-2.56 91.955-11.674 120.73-36.352l12.646-9.626c54.528-43.469 86.886-106.598 87.859-176.333 1.536-122.726-98.458-225.792-225.28-227.328zm1.382 401.92c-96.768-1.126-176.025-82.432-174.387-179.2 1.024-96.819 82.432-175.513 179.2-174.438 96.768 1.024 175.975 82.432 174.387 179.2-1.587 96.768-82.432 176.025-179.2 174.387z"/><path d="M950.477 685.978c-2.919-15.821-15.36-28.57-28.007-28.775h-3.174a49.869 49.869 0 01-49.818-51.2c.103-6.144 3.328-15.616 3.38-18.79a39.014 39.014 0 00-12.032-44.34l-56.372-32.307-15.77-.204c-9.471-.103-22.169 2.867-28.569 12.288-6.4 6.246-25.549 21.76-38.144 21.555-12.646-.154-31.385-16.18-40.755-22.63a40.09 40.09 0 00-28.211-12.954c-6.247-.103-9.472-.154-12.698 3.02l-60.313 30.72a39.014 39.014 0 00-13.21 44.033c1.843 5.888 2.918 12.646 2.918 19.61v-.615a49.869 49.869 0 01-51.2 49.817h-3.072c-12.646-.153-25.446 12.288-28.774 28.007 0 3.174-6.656 25.19-6.912 47.257-.256 18.944 2.56 44.237 5.632 47.412 2.97 15.872 15.462 28.62 28.109 28.774h3.123a49.869 49.869 0 0149.818 51.2c-.052 6.195-3.328 15.667-3.38 18.842a39.014 39.014 0 0012.084 44.339l56.37 32.256c6.35-3.072 9.473-2.97 15.822-2.919 9.472.103 22.118-2.867 28.57-12.288 6.348-6.246 25.548-24.883 41.318-24.678 12.646.154 34.508 16.23 40.704 25.754 6.246 6.4 15.616 12.8 28.262 13.004a28.416 28.416 0 0015.77-2.97l57.241-30.822a39.014 39.014 0 0013.159-44.032 66.97 66.97 0 01-2.919-19.558v.614a49.818 49.818 0 0151.2-49.817h3.072c12.647.153 25.447-12.288 28.775-28.058 0 0 6.656-25.139 6.963-47.206a183.86 183.86 0 01-8.96-44.34zm-45.159 78.336c-47.41 5.683-82.636 43.11-83.25 93.593-.154 9.472 2.815 22.119 5.887 28.467l-41.267 21.556-15.565-15.975c-18.739-12.851-34.457-19.353-53.401-19.61-15.77-.204-34.816 5.837-53.863 18.228-6.4 6.246-12.8 9.318-16.025 15.565l-37.479-22.528c3.226-6.298 6.503-18.944 6.656-28.365a95.232 95.232 0 00-80.793-95.744c.05-6.195-2.919-18.944-2.765-31.54.102-9.471 3.43-22.067 3.584-31.539 47.36-5.683 82.585-43.11 83.251-93.593a75.571 75.571 0 00-5.94-28.467l41.268-21.556c3.072 3.175 9.318 9.575 15.565 12.8 18.79 12.903 34.509 19.405 50.278 19.61 15.77.205 31.642-5.888 50.688-18.278 6.4-6.247 12.8-9.268 15.975-12.442l40.704 22.63a75.52 75.52 0 00-6.656 28.314 95.283 95.283 0 0080.793 95.744c-.102 6.246 2.867 18.944 2.714 31.54 3.072 9.522-.256 22.118-.359 31.59z"/><path d="M804.864 718.848c-5.786-37.888-33.792-66.714-68.454-73.472-59.802-13.414-114.074 39.526-102.298 102.81a87.552 87.552 0 0068.506 70.297 85.504 85.504 0 00102.297-99.635zm-85.862 52.531a41.78 41.78 0 01-40.448-41.574 41.728 41.728 0 0141.472-40.448c22.118.256 40.806 19.456 40.55 41.574a41.677 41.677 0 01-41.574 40.448z"/></svg>