<svg class="icon" viewBox="0 0 1024 1024" xmlns="http://www.w3.org/2000/svg" width="200" height="200"><path d="M633.941 953.003a32 32 0 01-30.464-22.272 96 96 0 00-182.933 0 32 32 0 01-39.616 20.928 459.35 459.35 0 01-199.445-121.6 32 32 0 01-1.408-42.859 96 96 0 00-73.408-157.867c-3.2 0-6.4.15-9.536.47a32 32 0 01-34.496-25.43A461.824 461.824 0 0174.325 374.4a32 32 0 0130.998-22.4h1.344a96.107 96.107 0 0096-96 95.019 95.019 0 00-9.835-42.39 32 32 0 016.912-37.589A459.925 459.925 0 01389.376 69.91a32 32 0 0137.035 16.299 96 96 0 00171.157 0 32 32 0 0137.035-16.299 459.925 459.925 0 01189.632 106.112 32 32 0 016.912 37.59A95.019 95.019 0 00821.333 256a96.107 96.107 0 0096 96h1.792a32 32 0 0130.528 22.421 461.824 461.824 0 0111.691 229.974 32 32 0 01-34.475 25.429 101.91 101.91 0 00-9.536-.47 96 96 0 00-73.408 157.867 32 32 0 01-1.408 42.816 459.328 459.328 0 01-199.445 121.6 32 32 0 01-9.13 1.366zM512 800a160.235 160.235 0 01139.413 81.344 395.627 395.627 0 00126.443-77.632 160 160 0 01125.141-237.739 398.57 398.57 0 00-8.533-151.594A160.192 160.192 0 01764.331 208.64a396.459 396.459 0 00-124.224-69.973 160.128 160.128 0 01-256.235 0 396.459 396.459 0 00-124.33 70.037A159.168 159.168 0 01266.666 256a160.256 160.256 0 01-137.174 158.379 398.592 398.592 0 00-8.533 151.594 160 160 0 01125.163 237.739 395.627 395.627 0 00126.442 77.632A160.235 160.235 0 01512 800z"/><path d="M512 693.333A181.333 181.333 0 11693.333 512 181.547 181.547 0 01512 693.333zm0-298.666A117.333 117.333 0 10629.333 512 117.461 117.461 0 00512 394.667z"/></svg>