<svg class="icon" viewBox="0 0 1170 1024" xmlns="http://www.w3.org/2000/svg" width="228.516" height="200"><defs><style/></defs><path d="M1023.883 1023.883H146.269A146.445 146.445 0 010 877.614V292.538a146.445 146.445 0 01146.269-146.269h146.269A146.445 146.445 0 01438.661 0h292.684a146.269 146.269 0 01145.83 135.387l.439 10.882h146.269a146.445 146.445 0 01146.269 146.269v585.076a146.415 146.415 0 01-146.269 146.269zM73.134 516.33v361.43a73.134 73.134 0 0073.135 73.135h877.614a73.134 73.134 0 0073.134-73.135V516.33H877.614v73.427h-73.135V516.33H365.672v73.427h-73.134V516.33zM804.48 370.353h73.135v72.842h219.403v-150.51a73.134 73.134 0 00-73.134-73.135H146.269a73.134 73.134 0 00-73.135 73.134v150.511h219.404v-72.842h73.134v72.842H804.48v-72.813zM438.807 73.134a73.134 73.134 0 00-73.135 73.135H804.48a73.134 73.134 0 00-73.134-73.135z"/></svg>