<svg class="icon" viewBox="0 0 1076 1024" xmlns="http://www.w3.org/2000/svg" width="210.156" height="200"><defs><style/></defs><path d="M91.897 0h892.718a91.897 91.897 0 0191.898 91.897v630.154a91.897 91.897 0 01-91.898 91.898H91.897A91.897 91.897 0 010 722.05V91.897A91.897 91.897 0 0191.897 0zm892.718 735.18a13.128 13.128 0 0013.129-13.129V91.897a13.128 13.128 0 00-13.129-13.128H91.897A13.128 13.128 0 0078.77 91.897v630.154a13.128 13.128 0 0013.128 13.128z"/><path d="M91.897 472.615h892.718a91.897 91.897 0 0191.898 91.898V722.05a91.897 91.897 0 01-91.898 91.898H91.897A91.897 91.897 0 010 722.05V564.513a91.897 91.897 0 0191.897-91.898zM984.615 735.18a13.128 13.128 0 0013.129-13.128V564.513a13.128 13.128 0 00-13.129-13.128H91.897a13.128 13.128 0 00-13.128 13.128V722.05a13.128 13.128 0 0013.128 13.128zM380.718 367.59a39.385 39.385 0 01-30.72-63.987L455.024 172.32a39.385 39.385 0 0161.518 49.204L411.517 352.807a39.385 39.385 0 01-30.8 14.783zM564.513 393.846a39.385 39.385 0 01-31.508-63.015l78.77-105.026a39.385 39.385 0 0163.015 47.262l-78.77 105.025a39.385 39.385 0 01-31.507 15.754z"/><path d="M485.74399999999997 643.282a52.513 52.513 0 10105.025 0 52.513 52.513 0 10-105.025 0zM800.82 1024H275.693a39.385 39.385 0 01-36.759-53.222l78.77-210.051a39.385 39.385 0 1173.518 27.674l-58.71 156.83h411.49L685.293 788.4a39.385 39.385 0 1173.518-27.674l78.77 210.051A39.385 39.385 0 01800.82 1024z"/></svg>