<svg t="1640143874414" class="icon" viewBox="0 0 1163 1024" version="1.1" xmlns="http://www.w3.org/2000/svg" p-id="8298" width="200" height="200"><path d="M0 167.703273v476.718545a167.656727 167.656727 0 0 0 167.703273 167.703273H419.374545L428.171636 1024l247.156364-211.874909h282.484364a167.656727 167.656727 0 0 0 167.703272-167.703273V167.703273A167.656727 167.656727 0 0 0 957.812364 0H167.749818A167.656727 167.656727 0 0 0 0 167.703273z m723.874909 264.843636a79.127273 79.127273 0 0 1 79.453091-79.453091 79.127273 79.127273 0 0 1 79.453091 79.453091A79.127273 79.127273 0 0 1 803.328 512a79.127273 79.127273 0 0 1-79.453091-79.453091z m-242.781091 0a79.127273 79.127273 0 0 1 79.453091-79.453091 79.127273 79.127273 0 0 1 79.453091 79.453091A79.127273 79.127273 0 0 1 560.546909 512a79.127273 79.127273 0 0 1-79.453091-79.453091z m-238.312727 0a79.127273 79.127273 0 0 1 79.406545-79.453091A79.127273 79.127273 0 0 1 401.687273 432.546909 79.127273 79.127273 0 0 1 322.187636 512a79.127273 79.127273 0 0 1-79.406545-79.453091z" fill="#3CD0BE" p-id="8299"></path></svg>