<svg class="icon" viewBox="0 0 1160 1024" xmlns="http://www.w3.org/2000/svg" width="16" height="16"><path d="M878.933 463.65C1029.751 463.65 1152 585.9 1152 736.717c0 150.8-122.249 273.066-273.067 273.066S605.867 887.518 605.867 736.717c0-150.818 122.248-273.067 273.066-273.067zM833.417 8.533c100.54 0 182.05 81.51 182.05 182.05v258.22a318.583 318.583 0 00-441.908 378.93H287.283L94.208 943.616a22.75 22.75 0 01-34.475-19.593v-733.44c0-100.54 81.51-182.05 182.05-182.05h591.634zm23.21 580.762a45.517 45.517 0 00-45.5 45.295v136.533a45.316 45.316 0 0016.282 34.902 46.295 46.295 0 007.885 5.973l117.043 70.315A45.517 45.517 0 10999.22 804.3l-97.11-58.351h.035V634.59a45.517 45.517 0 00-45.517-45.295zM469.333 418.133h-182.05a45.517 45.517 0 100 91.017h182.05a45.517 45.517 0 100-91.017zm318.584-227.55H287.283a45.517 45.517 0 100 91.017h500.634a45.517 45.517 0 000-91.017z" fill="#EDFBF6"/><path d="M563.2 477.867c103.68 0 187.733 84.053 187.733 187.733S666.88 853.333 563.2 853.333 375.467 769.28 375.467 665.6 459.52 477.867 563.2 477.867zm-31.283-312.884a125.15 125.15 0 01125.15 125.15v177.528a219.017 219.017 0 00-303.821 260.522H156.45l-132.779 79.65A15.65 15.65 0 010 794.386V290.133a125.15 125.15 0 01125.15-125.15h406.767zm15.957 399.275c-17.237 0-31.215 13.91-31.3 31.13v93.866a31.237 31.237 0 0011.213 23.996 31.539 31.539 0 005.41 4.096l80.47 48.35a31.283 31.283 0 1032.238-53.623l-66.782-40.107h.034v-76.578a31.283 31.283 0 00-31.283-31.13zM281.6 446.583H156.45a31.283 31.283 0 000 62.567H281.6a31.283 31.283 0 100-62.567zm219.017-156.45H156.45a31.283 31.283 0 100 62.584h344.167a31.283 31.283 0 000-62.584z" fill="#50DCAC"/></svg>