<svg class="icon" viewBox="0 0 1200 1024" xmlns="http://www.w3.org/2000/svg" width="16" height="16"><path d="M670.614 124.01v492.773L496.5 588.977l81.831 303.74c13.171 48.904-20.55 100.545-75.316 115.287-54.784 14.778-109.869-12.94-123.057-61.863L274.185 553.49l-94.279-15.06V200.298l490.708-76.288zm20.621-49.488c0-61.298 235.061-78.353 235.061-47.421v735.761c0 30.915-235.06 13.877-235.06-47.421zm321.042 403.633a17.532 17.532 0 0124.647 2.754l101.711 127.206a17.532 17.532 0 01-2.737 24.646l-19.314 15.431a17.532 17.532 0 01-24.647-2.737L990.243 518.25a17.532 17.532 0 012.737-24.647zm-848.86-277.857V538.43L70.62 486.877V258.048l92.778-57.732zm856.752 109.639l162.869.247a17.532 17.532 0 0117.514 17.567l-.036 24.717a17.532 17.532 0 01-17.566 17.514l-162.87-.265a17.532 17.532 0 01-17.513-17.55l.053-24.717a17.532 17.532 0 0117.549-17.513zm96.397-286.773l19.332 15.448a17.532 17.532 0 012.737 24.646l-101.694 127.206a17.532 17.532 0 01-24.664 2.737L992.98 177.77a17.532 17.532 0 01-2.754-24.647l101.711-127.205a17.532 17.532 0 0124.647-2.754z" fill="#E8F5FF"/><path d="M412.495 245.248v338.803l-119.702-19.12 56.25 208.807c9.057 33.633-14.124 69.138-51.783 79.272-37.64 10.151-75.529-8.899-84.568-42.55l-72.74-269.947-64.83-10.346V297.702l337.391-52.436zm14.178-34.022c0-42.142 161.597-53.848 161.597-32.591v505.82c0 21.275-161.597 9.552-161.597-32.59zM647.415 488.73a12.058 12.058 0 0116.95 1.89l69.914 87.463a12.058 12.058 0 01-1.89 16.95l-13.276 10.592a12.058 12.058 0 01-16.95-1.871L632.25 516.29a12.058 12.058 0 011.89-16.949zM63.788 297.702v232.465L0 494.733V337.39l63.788-39.688zm589.03 75.387l111.969.177a12.058 12.058 0 0112.04 12.058l-.035 17.002a12.058 12.058 0 01-12.058 12.04l-111.987-.176a12.058 12.058 0 01-12.023-12.076l.018-17.002a12.058 12.058 0 0112.076-12.04zm66.277-197.173l13.277 10.593a12.058 12.058 0 011.889 16.95l-69.915 87.463a12.058 12.058 0 01-16.948 1.889l-13.277-10.61a12.058 12.058 0 01-1.89-16.95l69.915-87.463a12.058 12.058 0 0116.95-1.872z" fill="#48B1FF"/></svg>