<svg class="icon" viewBox="0 0 1024 1024" xmlns="http://www.w3.org/2000/svg" width="64" height="64"><defs><style/></defs><path d="M499.2 42.667c256 0 469.333 209.066 469.333 469.333S759.467 981.333 499.2 981.333 29.867 772.267 29.867 512 238.933 42.667 499.2 42.667zm289.963 485.802c0-3.498-.427-6.4-.896-6.4a15.872 15.872 0 0 0-1.451-6.57c.043-.342-.427-.854-.427-.854-.426-.981-.426-1.92-.896-2.432C735.104 397.1 625.067 320.384 512.256 320.384s-222.805 76.715-273.707 190.848a18.048 18.048 0 0 1-1.365 3.413c0 .47-.427.47-.427.982-.938 2.986-.938 4.949-.938 4.437-.427 2.432-.939 6.4-.939 6.4v3.925s.47 3.926.47 4.438c0 .981.426 2.474.426 3.882.512 1.494.512 2.518.981 3.499.427.939.427 1.963.896 2.432C288.981 659.285 399.02 736 511.36 736c112.768 0 222.848-76.715 273.195-190.336.938-1.493 1.408-2.987 1.834-3.968 0-.47.47-.47.47-.981a15.787 15.787 0 0 0 .938-4.907 14.464 14.464 0 0 0 1.366-7.381zm-36.95 1.451c0 .47-.469.981-.469.981-45.27 100.352-141.483 167.766-239.488 167.766-97.536 0-193.707-67.414-239.445-167.723 0-.512 0-.512-.47-.981v-3.968c0-.47 0-.47.47-1.024C318.08 425.6 414.293 358.272 512.256 358.272c98.005 0 194.219 67.37 239.488 167.68v1.024c0 .981 0 1.493.427 1.963v.981zm-239.957-95.915c-50.859 0-92.416 42.283-92.416 94.464 0 52.054 41.557 94.422 92.416 94.422s92.459-42.326 92.459-94.422c0-52.181-41.6-94.464-92.459-94.464zm0 150.998c-30.507 0-55.467-25.558-55.467-56.534 0-31.53 24.96-56.618 55.467-56.618 30.55 0 55.467 25.6 55.467 56.576 0 31.445-24.96 56.533-55.467 56.533v.043z" fill="#FF6A39"/></svg>