<svg class="icon" width="64" height="64" viewBox="0 0 1024 1024" xmlns="http://www.w3.org/2000/svg"><path fill="#20a0ff" d="M1023.707 511.78A511.415 511.415 0 0 0 512.22.294a511.415 511.415 0 1 0 0 1022.976 511.415 511.415 0 0 0 511.488-511.488zm-954.733 0A443.758 443.758 0 0 1 512.219 68.536 443.758 443.758 0 0 1 955.465 511.78 443.758 443.758 0 0 1 512.22 955.026 443.758 443.758 0 0 1 68.974 511.781z"/><path fill="#20a0ff" d="M750.885 477.623h-477.33a34.085 34.085 0 0 0 0 68.242h477.33a34.085 34.085 0 0 0 0-68.169z"/></svg>