<svg t="1635327300723" class="icon" viewBox="0 0 1024 1024" version="1.1" xmlns="http://www.w3.org/2000/svg" p-id="3180" width="200" height="200"><path d="M511.998836 0.002327C229.235843 0.002327 0 229.23817 0 512.001164s229.235843 511.998836 511.998836 511.998836 511.998836-229.235843 511.998837-511.998836A510.509385 510.509385 0 0 0 511.998836 0.002327z" fill="#FF6A39" p-id="3181"></path><path d="M837.816278 512.001164l-153.599651 153.599651-38.399913-38.399913L761.016452 512.001164l-115.199738-115.199739 38.399913-38.399912L837.816278 512.001164zM262.98122 512.001164l115.199739 115.199738-38.399913 38.399913L186.181395 512.001164l153.599651-153.599651 38.353367 38.399912L262.98122 512.001164z m188.974116 244.363081H394.146013l177.896323-488.726162h57.809323L451.955336 756.364245z" fill="#FFFFFF" p-id="3182"></path></svg>