<svg class="icon" viewBox="0 0 1024 1024" xmlns="http://www.w3.org/2000/svg" width="128" height="128"><defs><style/></defs><path d="M512 42.667C251.733 42.667 42.667 251.733 42.667 512S251.733 981.333 512 981.333 981.333 772.267 981.333 512 772.267 42.667 512 42.667zm245.29 362.41L491.009 671.36a37.803 37.803 0 0 1-5.547 7.253 39.68 39.68 0 0 1-54.741 0 37.803 37.803 0 0 1-5.547-7.253L266.752 512.853a37.504 37.504 0 0 1 52.992-52.992l138.41 138.326L704.342 352a37.504 37.504 0 0 1 52.992 53.077z" fill="#FF6A39"/></svg>