<svg class="icon" viewBox="0 0 1024 1024" xmlns="http://www.w3.org/2000/svg" width="128" height="128"><defs><style/></defs><path d="M512 42.667c260.267 0 469.333 209.066 469.333 469.333S772.267 981.333 512 981.333 42.667 772.267 42.667 512 251.733 42.667 512 42.667zm-30.208 200.96V347.52c0 17.323 12.97 30.293 30.293 30.293s30.294-12.97 30.294-30.293V243.627a29.568 29.568 0 0 0-30.294-30.294 29.568 29.568 0 0 0-30.293 30.294zm199.125 56.32l-73.6 73.557c-12.97 12.97-12.97 30.293 0 43.264 12.971 13.013 30.294 13.013 43.264 0l73.6-73.557c12.971-13.014 12.971-30.294 0-43.307-12.97-12.97-30.293-12.97-43.264 0zm99.542 181.76H676.565A29.568 29.568 0 0 0 646.272 512c0 17.323 12.97 30.293 30.293 30.293H780.46c17.322 0 30.293-12.97 30.293-30.293a29.568 29.568 0 0 0-30.293-30.293zM724.18 680.832l-73.6-73.6c-12.97-12.97-30.293-12.97-43.264 0-12.97 12.97-12.97 30.293 0 43.264l73.6 73.6c12.971 12.97 30.294 12.97 43.264 0 12.971-12.97 12.971-30.293 0-43.264zm-181.76 99.541V676.48a29.568 29.568 0 0 0-30.293-30.293 29.568 29.568 0 0 0-30.336 30.293v103.893c0 17.323 12.97 30.294 30.293 30.294s30.294-12.971 30.294-30.294zm-199.125-56.277l73.557-73.6c13.014-12.97 13.014-30.293 0-43.264-12.97-12.97-30.293-12.97-43.264 0l-73.642 73.6c-12.971 12.97-12.971 30.293 0 43.264 12.97 12.97 30.293 12.97 43.306 0zm-99.584-181.76h103.893c17.323 0 30.294-13.013 30.294-30.293a29.568 29.568 0 0 0-30.294-30.336H243.712A29.568 29.568 0 0 0 213.419 512c0 17.323 12.97 30.293 30.293 30.293zm56.32-199.125l73.557 73.557c12.971 13.013 30.294 13.013 43.264 0 13.014-12.97 13.014-30.293 0-43.264l-73.557-73.6c-13.013-12.97-30.293-12.97-43.307 0-12.97 12.97-12.97 30.293 0 43.307z" fill="#FF6A39"/></svg>