<svg class="icon" viewBox="0 0 1024 1024" xmlns="http://www.w3.org/2000/svg" width="128" height="128"><defs><style/></defs><path d="M512 42.667C251.733 42.667 42.667 251.733 42.667 512S251.733 981.333 512 981.333 981.333 772.267 981.333 512 772.267 42.667 512 42.667z" fill="#20A0FF"/><path d="M512 298.667A21.333 21.333 0 0 1 533.333 320v384a21.333 21.333 0 1 1-42.666 0V320A21.333 21.333 0 0 1 512 298.667zM640 384a21.333 21.333 0 0 1 21.333 21.333v213.334a21.333 21.333 0 1 1-42.666 0V405.333A21.333 21.333 0 0 1 640 384zm128 85.333a21.333 21.333 0 0 1 21.333 21.334v42.666a21.333 21.333 0 1 1-42.666 0v-42.666A21.333 21.333 0 0 1 768 469.333zM384 384a21.333 21.333 0 0 1 21.333 21.333v213.334a21.333 21.333 0 1 1-42.666 0V405.333A21.333 21.333 0 0 1 384 384zm-128 85.333a21.333 21.333 0 0 1 21.333 21.334v42.666a21.333 21.333 0 1 1-42.666 0v-42.666A21.333 21.333 0 0 1 256 469.333z" fill="#FFF"/></svg>