<svg viewBox="0 0 1024 1024" xmlns="http://www.w3.org/2000/svg" width="14px" height="14px" aria-hidden="true"  focusable="false" class="" style="margin-right: 10px; color: rgb(32, 160, 255);"><defs><style></style></defs><path d="M697.659 361.393V42.929A42.693 42.693 0 00655.123 0H368.876a42.85 42.85 0 00-42.614 42.85v318.543H121.305c-23.474 0-29.145 13.076-12.052 29.617l372.263 362.338c17.014 16.542 43.953 16.542 60.967 0L914.746 391.01c16.857-16.305 11.028-29.617-12.051-29.617H697.659zm-618.89 641.654a21.268 21.268 0 0021.425 20.952h823.61a21.268 21.268 0 0021.426-21.031v-78.454a21.268 21.268 0 00-21.425-21.032h-823.61a21.268 21.268 0 00-21.426 21.032v78.533z" fill="#20a0ff"></path></svg>