<svg t="1640076675167" class="icon" viewBox="0 0 1024 1024" version="1.1" xmlns="http://www.w3.org/2000/svg" p-id="3287" width="200" height="200"><path d="M511.998836 0.002327C229.235843 0.002327 0 229.23817 0 512.001164s229.235843 511.998836 511.998836 511.998836 511.998836-229.235843 511.998837-511.998836A510.509385 510.509385 0 0 0 511.998836 0.002327z" fill="#FF6A39" p-id="3288"></path><path d="M379.810046 749.242806a271.499019 271.499019 0 1 1 264.377581 0l-24.343218-48.639889a217.227143 217.227143 0 1 0-215.737691 0l-24.296672 48.639889z m48.686435-97.326324a162.908721 162.908721 0 1 1 167.004711 0l-24.389763-48.779525a108.590299 108.590299 0 1 0-118.225186 0l-24.389762 48.779525zM511.998836 620.591462l81.454361 162.908721h-162.908721l81.45436-162.908721z" fill="#FFFFFF" p-id="3289"></path></svg>