<svg t="1635327196089" class="icon" viewBox="0 0 1024 1024" version="1.1" xmlns="http://www.w3.org/2000/svg" p-id="2910" width="200" height="200"><path d="M511.998836 0.002327C229.235843 0.002327 0 229.23817 0 512.001164s229.235843 511.998836 511.998836 511.998836 511.998836-229.235843 511.998837-511.998836A510.509385 510.509385 0 0 0 511.998836 0.002327z" fill="#FF6A39" p-id="2911"></path><path d="M566.317258 729.228306v54.271877h-325.817441v-54.271877h325.817441zM582.189222 204.801862l211.222793 211.176247-38.399913 38.446458-28.811571-9.588342L658.989048 512.001164l153.599651 153.599651-38.399913 38.399912-153.599651-153.599651-65.256579 65.256579 7.679983 30.719931-38.399913 38.399912-211.222793-211.176247 38.446458-38.399913 30.71993 7.679983 170.82143-170.867976-9.541796-28.765025 38.353367-38.446458z m19.223229 96.023054l-191.999563 191.953019 95.976509 96.023054 191.999563-191.999564-95.976509-95.976509z" fill="#FFFFFF" p-id="2912"></path></svg>