<svg t="1635327097512" class="icon" viewBox="0 0 1024 1024" version="1.1" xmlns="http://www.w3.org/2000/svg" p-id="2775" width="200" height="200"><path d="M511.998836 0.002327C229.235843 0.002327 0 229.23817 0 512.001164s229.235843 511.998836 511.998836 511.998836 511.998836-229.235843 511.998837-511.998836A510.509385 510.509385 0 0 0 511.998836 0.002327z" fill="#FF6A39" p-id="2776"></path><path d="M511.998836 240.502144A271.499019 271.499019 0 0 1 783.497856 512.001164v102.213586c0 20.573044-11.636337 39.377365-30.02175 48.546798l-78.568549 39.284275v27.182483a81.45436 81.45436 0 0 1-76.660189 81.314725l-6.143986 0.139636c0.60509-2.978902 0.977452-5.957805 1.210179-8.983253l0.139636-4.607989v-13.591242c0-28.392663-21.876314-52.0377-50.268977-54.132241l-4.049445-0.139636h-54.271877c-28.392663 0-52.0377 21.876314-54.178786 50.222432l-0.139636 4.049445v13.591242c0 4.654535 0.465453 9.215979 1.39636 13.591242h-1.39636a81.45436 81.45436 0 0 1-81.45436-81.454361v-27.182483l-78.568549-39.284275a54.318422 54.318422 0 0 1-30.02175-48.593344V512.001164A271.499019 271.499019 0 0 1 511.998836 240.502144z m0 54.271877a217.227143 217.227143 0 0 0-217.087506 210.431522L294.771694 512.001164v102.213586l108.636844 54.271876v43.194084l2.00145-2.280722a108.404117 108.404117 0 0 1 73.960559-34.350468l5.492351-0.139636h56.273327l6.050895 0.279272a108.357572 108.357572 0 0 1 69.259479 31.976655l4.189081 4.514899v-43.194084l108.590299-54.271876V512.001164A217.227143 217.227143 0 0 0 511.998836 294.774021z m-108.590298 190.091204a54.318422 54.318422 0 1 1 0 108.590299 54.318422 54.318422 0 0 1 0-108.590299z m217.180597 0a54.318422 54.318422 0 1 1 0 108.590299 54.318422 54.318422 0 0 1 0-108.590299z" fill="#FFFFFF" p-id="2777"></path></svg>