<?xml version="1.0" standalone="no"?><!DOCTYPE svg PUBLIC "-//W3C//DTD SVG 1.1//EN" "http://www.w3.org/Graphics/SVG/1.1/DTD/svg11.dtd"><svg t="1609739603566" class="icon" viewBox="0 0 1024 1024" version="1.1" xmlns="http://www.w3.org/2000/svg" p-id="8412" xmlns:xlink="http://www.w3.org/1999/xlink" width="200" height="200"><defs><style type="text/css"></style></defs><path d="M512 0C228.072727 0 0 228.072727 0 512s228.072727 512 512 512 512-228.072727 512-512S795.927273 0 512 0z" fill="#FF6A39" p-id="8413"></path><path d="M512 232.727273a279.272727 279.272727 0 1 0 0 558.545454 279.272727 279.272727 0 0 0 0-558.545454z m18.618182 520.378182V660.945455a18.618182 18.618182 0 0 0-37.236364 0v92.16a241.803636 241.803636 0 0 1-222.533818-222.487273h92.16a18.618182 18.618182 0 1 0 0-37.236364H270.894545A241.803636 241.803636 0 0 1 493.381818 270.894545V363.054545a18.618182 18.618182 0 1 0 37.236364 0V270.894545a241.803636 241.803636 0 0 1 222.533818 222.487273h-92.16a18.618182 18.618182 0 0 0 0 37.236364h92.16a241.803636 241.803636 0 0 1-222.533818 222.487273zM512 456.145455a55.854545 55.854545 0 1 0 0 111.70909 55.854545 55.854545 0 0 0 0-111.70909z" fill="#FFFFFF" p-id="8414"></path></svg>