<?xml version="1.0" standalone="no"?><!DOCTYPE svg PUBLIC "-//W3C//DTD SVG 1.1//EN" "http://www.w3.org/Graphics/SVG/1.1/DTD/svg11.dtd"><svg t="1609739595247" class="icon" viewBox="0 0 1024 1024" version="1.1" xmlns="http://www.w3.org/2000/svg" p-id="8285" xmlns:xlink="http://www.w3.org/1999/xlink" width="200" height="200"><defs><style type="text/css"></style></defs><path d="M512 512m-512 0a512 512 0 1 0 1024 0 512 512 0 1 0-1024 0Z" fill="#FFBE15" p-id="8286"></path><path d="M669.789091 553.565091a13.032727 13.032727 0 0 1-20.898909-0.605091l-2.932364-4.375273a55.668364 55.668364 0 0 1-9.728-31.232V287.511273a24.017455 24.017455 0 0 0-24.343273-23.691637 23.970909 23.970909 0 0 0-24.389818 23.691637v197.911272a16.849455 16.849455 0 0 1-17.035636 16.523637h-3.444364a16.756364 16.756364 0 0 1-17.035636-16.523637v-229.003636A24.017455 24.017455 0 0 0 525.637818 232.727273a23.970909 23.970909 0 0 0-24.389818 23.645091v228.910545a16.849455 16.849455 0 0 1-17.035636 16.570182 16.756364 16.756364 0 0 1-17.035637-16.570182V274.711273a24.017455 24.017455 0 0 0-24.343272-23.645091 23.970909 23.970909 0 0 0-24.389819 23.645091v235.985454a16.849455 16.849455 0 0 1-17.035636 16.570182h-1.396364a16.756364 16.756364 0 0 1-17.035636-16.523636V363.054545a19.968 19.968 0 0 0-20.247273-19.642181 19.968 19.968 0 0 0-20.200727 19.642181v260.933819c0 87.412364 73.541818 164.677818 163.700364 167.144727 85.038545 2.280727 150.807273-47.522909 180.596363-114.129455L744.727273 558.359273c6.376727-13.218909 14.196364-25.6 23.272727-37.329455l16.244364-20.852363c3.072-3.909818 1.629091-10.053818-3.118546-11.68291a71.214545 71.214545 0 0 0-79.36 23.272728l-31.930182 41.797818z" fill="#FFFFFF" p-id="8287"></path></svg>