<?xml version="1.0" standalone="no"?><!DOCTYPE svg PUBLIC "-//W3C//DTD SVG 1.1//EN" "http://www.w3.org/Graphics/SVG/1.1/DTD/svg11.dtd"><svg t="1621929966590" class="icon" viewBox="0 0 1024 1024" version="1.1" xmlns="http://www.w3.org/2000/svg" p-id="6725" xmlns:xlink="http://www.w3.org/1999/xlink" width="200" height="200"><defs><style type="text/css"></style></defs><path d="M512 0c283.927273 0 512 228.072727 512 512s-228.072727 512-512 512S0 795.927273 0 512 228.072727 0 512 0z m155.229091 413.230545l-3.351273 0.325819a19.781818 19.781818 0 0 0-15.220363 19.828363l0.279272 3.584c1.582545 9.402182 9.169455 16.523636 18.245818 16.570182h43.52v274.152727H458.100364v-274.152727h43.566545l3.304727-0.325818a19.781818 19.781818 0 0 0 15.266909-19.828364c0-11.170909-8.378182-20.154182-18.618181-20.154182H439.621818l-3.351273 0.325819a19.781818 19.781818 0 0 0-15.220363 19.828363v314.461091l0.325818 3.630546c1.536 9.402182 9.122909 16.523636 18.245818 16.523636h289.698909l3.351273-0.325818a19.781818 19.781818 0 0 0 15.220364-19.828364V433.384727l-0.279273-3.630545c-1.582545-9.402182-9.169455-16.523636-18.292364-16.523637h-62.045091zM584.424727 256H294.725818l-3.351273 0.325818a19.781818 19.781818 0 0 0-15.220363 19.828364v314.461091l0.279273 3.630545c1.582545 9.402182 9.169455 16.523636 18.292363 16.523637h62.091637l3.304727-0.325819a19.781818 19.781818 0 0 0 15.220363-19.828363l-0.279272-3.630546c-1.582545-9.402182-9.169455-16.523636-18.245818-16.523636H313.250909v-274.152727h252.602182v274.152727h-43.52l-3.304727 0.325818a19.781818 19.781818 0 0 0-15.266909 19.828364c0 11.170909 8.331636 20.154182 18.618181 20.154182h62.045091l3.351273-0.325819a19.781818 19.781818 0 0 0 15.220364-19.828363V276.154182l-0.325819-3.630546c-1.536-9.402182-9.122909-16.523636-18.245818-16.523636z" fill="#20A0FF" p-id="6726"></path></svg>