<?xml version="1.0" standalone="no"?><!DOCTYPE svg PUBLIC "-//W3C//DTD SVG 1.1//EN" "http://www.w3.org/Graphics/SVG/1.1/DTD/svg11.dtd"><svg t="1605841626232" class="icon" viewBox="0 0 1024 1024" version="1.1" xmlns="http://www.w3.org/2000/svg" p-id="6531" xmlns:xlink="http://www.w3.org/1999/xlink" width="200" height="200"><defs><style type="text/css"></style></defs><path d="M512 0C228.072727 0 0 228.072727 0 512s228.072727 512 512 512 512-228.072727 512-512S795.927273 0 512 0z" fill="#FF6A39" p-id="6532"></path><path d="M434.408727 550.772364c21.410909 0 38.818909 17.361455 38.818909 38.818909v116.363636c0 21.410909-17.361455 38.772364-38.818909 38.772364h-116.363636A38.772364 38.772364 0 0 1 279.272727 705.954909v-116.363636c0-21.410909 17.361455-38.818909 38.772364-38.818909h116.363636z m271.546182 0c21.410909 0 38.772364 17.361455 38.772364 38.818909v116.363636c0 21.410909-17.361455 38.772364-38.772364 38.772364h-116.363636a38.772364 38.772364 0 0 1-38.818909-38.772364v-116.363636c0-21.410909 17.361455-38.818909 38.818909-38.818909h116.363636z m-271.546182 38.818909h-116.363636v116.363636h116.363636v-116.363636z m271.546182 0h-116.363636v116.363636h116.363636v-116.363636zM434.408727 279.272727c21.410909 0 38.818909 17.361455 38.818909 38.772364v116.363636c0 21.410909-17.361455 38.818909-38.818909 38.818909h-116.363636A38.772364 38.772364 0 0 1 279.272727 434.408727v-116.363636c0-21.410909 17.361455-38.772364 38.772364-38.772364h116.363636z m271.546182 0c21.410909 0 38.772364 17.361455 38.772364 38.772364v116.363636c0 21.410909-17.361455 38.818909-38.772364 38.818909h-116.363636a38.772364 38.772364 0 0 1-38.818909-38.818909v-116.363636c0-21.410909 17.361455-38.772364 38.818909-38.772364h116.363636z m-271.546182 38.772364h-116.363636v116.363636h116.363636v-116.363636z m271.546182 0h-116.363636v116.363636h116.363636v-116.363636z" fill="#FFFFFF" p-id="6533"></path></svg>