<?xml version="1.0" standalone="no"?><!DOCTYPE svg PUBLIC "-//W3C//DTD SVG 1.1//EN" "http://www.w3.org/Graphics/SVG/1.1/DTD/svg11.dtd"><svg t="1583398700149" class="icon" viewBox="0 0 1024 1024" version="1.1" xmlns="http://www.w3.org/2000/svg" p-id="6115" xmlns:xlink="http://www.w3.org/1999/xlink" width="200" height="200"><defs><style type="text/css"></style></defs><path d="M512 498.643478m-489.73913 0a489.73913 489.73913 0 1 0 979.47826 0 489.73913 489.73913 0 1 0-979.47826 0Z" fill="#FFBE15" p-id="6116"></path><path d="M292.285217 347.269565a13.267478 13.267478 0 0 0-6.945391 11.798261v280.932174c0 5.030957 2.671304 9.616696 6.989913 11.798261l216.687304 112.417391a12.02087 12.02087 0 0 0 11.219479 0l210.009043-110.770087a13.267478 13.267478 0 0 0 6.90087-11.753739l0.089043-282.713043c0-4.941913-2.626783-9.48313-6.767304-11.75374l-209.430261-114.19826a12.02087 12.02087 0 0 0-11.442087-0.133566l-217.266087 114.42087h-0.044522z m190.95374 115.845565v230.221913c0 3.250087-3.205565 5.342609-6.010435 3.917914l-142.469565-73.906087a13.267478 13.267478 0 0 1-6.989914-11.842783v-223.49913c0-4.986435 2.671304-9.527652 6.90087-11.75374l172.388174-90.913391a12.02087 12.02087 0 0 1 11.442087 0.133565l133.431652 72.837566a4.585739 4.585739 0 0 1-0.089043 8.013913L490.184348 451.272348a13.267478 13.267478 0 0 0-6.945391 11.753739v0.044522z m212.101565 153.733566l-163.528348 87.885913c-2.849391 1.513739-6.188522-0.667826-6.188522-4.006957v-208.673391a13.356522 13.356522 0 0 1 6.90087-11.798261l156.538435-82.587826c2.849391-1.469217 6.144 0.712348 6.144 4.096v215.084522h0.133565z" fill="#FFFFFF" p-id="6117"></path></svg>