<?xml version="1.0" standalone="no"?><!DOCTYPE svg PUBLIC "-//W3C//DTD SVG 1.1//EN" "http://www.w3.org/Graphics/SVG/1.1/DTD/svg11.dtd"><svg t="1621929999620" class="icon" viewBox="0 0 1024 1024" version="1.1" xmlns="http://www.w3.org/2000/svg" p-id="7106" xmlns:xlink="http://www.w3.org/1999/xlink" width="200" height="200"><defs><style type="text/css"></style></defs><path d="M512 0c283.927273 0 512 228.072727 512 512s-228.072727 512-512 512S0 795.927273 0 512 228.072727 0 512 0z m181.946182 302.545455h-363.52a25.088 25.088 0 0 0-18.013091 8.238545 137.728 137.728 0 0 1-21.922909 25.6 307.2 307.2 0 0 1-26.112 24.064 20.48 20.48 0 0 0-8.192 20.014545 648.192 648.192 0 0 0 78.289454 241.57091 574.976 574.976 0 0 0 165.888 187.950545c7.633455 6.050909 18.478545 6.050909 26.112 0a607.744 607.744 0 0 0 163.84-185.856l-0.046545 0.465455a601.088 601.088 0 0 0 77.824-245.76 21.504 21.504 0 0 0-8.192-17.92 307.2 307.2 0 0 1-26.112-24.064c-6.050909-8.192-13.730909-15.825455-21.922909-26.065455a21.504 21.504 0 0 0-17.92-8.192zM617.192727 386.094545l-53.76 102.4h102.4l-187.345454 205.824 33.792-130.048H386.792727l74.100364-178.176h156.253091z" fill="#FF6A39" p-id="7107"></path></svg>