<svg t="1639106978471" class="icon" viewBox="0 0 1024 1024" version="1.1" xmlns="http://www.w3.org/2000/svg" p-id="3724" width="200" height="200"><path d="M670.47619 0a24.380952 24.380952 0 0 1 16.018286 5.997714l2.096762 2.072381 219.428572 243.809524a24.380952 24.380952 0 0 1 6.095238 13.312L914.285714 268.190476v219.428572a24.380952 24.380952 0 0 1-48.591238 2.852571L865.52381 487.619048v-210.066286L659.626667 48.761905H158.47619a24.380952 24.380952 0 0 0-24.210285 21.528381L134.095238 73.142857v877.714286a24.380952 24.380952 0 0 0 21.528381 24.210286L158.47619 975.238095h292.571429a24.380952 24.380952 0 0 1 2.852571 48.591238L451.047619 1024H158.47619a73.142857 73.142857 0 0 1-73.020952-68.85181L85.333333 950.857143V73.142857A73.142857 73.142857 0 0 1 154.185143 0.121905L158.47619 0h512z" fill="#999999" p-id="3725"></path><path d="M670.47619 585.142857a170.666667 170.666667 0 1 0 0 341.333333 170.666667 170.666667 0 0 0 0-341.333333z m0 48.761905a121.904762 121.904762 0 1 1 0 243.809524 121.904762 121.904762 0 0 1 0-243.809524z" fill="#999999" p-id="3726"></path><path d="M773.36381 838.095238a24.380952 24.380952 0 0 1 31.744-5.558857l2.511238 1.755429 121.904762 97.523809a24.380952 24.380952 0 0 1-27.964953 39.838476l-2.511238-1.755428-121.904762-97.52381a24.380952 24.380952 0 0 1-3.803428-34.279619zM646.095238 0a24.380952 24.380952 0 0 1 24.210286 21.528381L670.47619 24.380952v219.428572h219.428572a24.380952 24.380952 0 0 1 24.210286 21.528381L914.285714 268.190476a24.380952 24.380952 0 0 1-21.528381 24.210286L889.904762 292.571429H646.095238a24.380952 24.380952 0 0 1-24.210286-21.528381L621.714286 268.190476V24.380952a24.380952 24.380952 0 0 1 24.380952-24.380952z" fill="#999999" p-id="3727"></path></svg>