<svg t="1639106852888" class="icon" viewBox="0 0 1024 1024" version="1.1" xmlns="http://www.w3.org/2000/svg" p-id="3340" width="200" height="200"><path d="M867.2 443.7248H156.8A54.4 54.4 0 0 0 102.4 498.1248v411.7504c0 30.0288 24.3456 54.4 54.4 54.4h710.4A54.4 54.4 0 0 0 921.6 909.8752V498.1248a54.4 54.4 0 0 0-54.4-54.4z m-710.4 51.2h710.4c1.7664 0 3.2 1.4336 3.2 3.2v411.7504a3.2 3.2 0 0 1-3.2 3.2H156.8A3.2 3.2 0 0 1 153.6 909.8752V498.1248c0-1.7664 1.4336-3.2 3.2-3.2z" fill="#999999" p-id="3341"></path><path d="M512 59.7248a238.9248 238.9248 0 0 1 238.848 232.0128l0.0768 6.912v170.6752a25.6 25.6 0 0 1-51.0208 2.9952l-0.1792-2.9952v-170.6496a187.7248 187.7248 0 0 0-375.3472-6.1952l-0.1024 6.1952v170.6496a25.6 25.6 0 0 1-51.0464 2.9952l-0.1536-2.9952v-170.6496A238.9248 238.9248 0 0 1 512 59.7248zM512 614.4a25.6 25.6 0 0 1 25.4208 22.6048L537.6 640v128a25.6 25.6 0 0 1-51.0208 2.9952L486.4 768v-128a25.6 25.6 0 0 1 25.6-25.6z" fill="#999999" p-id="3342"></path></svg>