<svg t="1639106934135" class="icon" viewBox="0 0 1024 1024" version="1.1" xmlns="http://www.w3.org/2000/svg" p-id="3595" width="200" height="200"><path d="M243.2 407.552a25.6 25.6 0 0 1 11.8528 49.792 187.7248 187.7248 0 1 0 94.9248 363.2896 25.6 25.6 0 1 1 13.952 49.28A238.9248 238.9248 0 0 1 243.2 407.552zM744.2688 426.5216a25.6 25.6 0 0 1 30.8224-18.9696 238.9248 238.9248 0 1 1-120.7296 462.336 25.6 25.6 0 0 1 13.952-49.2544 187.7248 187.7248 0 0 0 94.9248-363.2896 25.6 25.6 0 0 1-18.9696-30.8224z" fill="#999999" p-id="3596"></path><path d="M512 145.0752c155.52 0 281.6 126.08 281.6 281.6a25.6 25.6 0 0 1-51.2 0 230.4 230.4 0 0 0-460.8 0 25.6 25.6 0 0 1-51.2 0c0-155.52 126.08-281.6 281.6-281.6zM646.1184 621.824a25.6 25.6 0 0 1 38.1952 33.9456l-2.1248 2.4064-152.1664 150.9632a25.6 25.6 0 0 1-33.7408 2.048l-2.4064-2.1504-147.968-148.4288a25.6 25.6 0 0 1 33.8688-38.272l2.4064 2.1248 129.8944 130.3296 134.0416-132.9664z" fill="#999999" p-id="3597"></path><path d="M512 401.0752a25.6 25.6 0 0 1 25.4208 22.6048l0.1792 2.9952v288.7936a25.6 25.6 0 0 1-51.0208 2.9952L486.4 715.4688V426.6752a25.6 25.6 0 0 1 25.6-25.6z" fill="#999999" p-id="3598"></path></svg>