<svg t="1639106916853" class="icon" viewBox="0 0 1024 1024" version="1.1" xmlns="http://www.w3.org/2000/svg" p-id="3468" width="200" height="200"><path d="M415.816549 0.123367a146.626838 146.626838 0 0 0-140.263419 146.431791v45.909268H118.613164v2.145521l-1.877331 0.341333A143.067224 143.067224 0 0 0 0 335.556031v168.569664h106.861562a101.107665 101.107665 0 0 1 0 202.21533H0v174.56737A143.067224 143.067224 0 0 0 142.994081 1024h170.32509v-98.913383a103.033758 103.033758 0 0 1 50.273452-92.549963 102.643663 102.643663 0 0 1 154.940731 91.745393V1024h172.299945l5.363802-0.097524a143.067224 143.067224 0 0 0 137.65466-142.994081l-0.024381-129.779624h48.761835a141.409322 141.409322 0 0 0 141.409322-141.409322l-0.097524-5.412564A141.409322 141.409322 0 0 0 882.589215 468.358889l-48.834978-0.024381v-132.754096l-0.073142-5.363802a143.018462 143.018462 0 0 0-142.847796-137.727803h-127.26839l1.04838-46.665076A142.67713 142.67713 0 0 0 421.302255 0.001463l-5.485706 0.121904zM421.546064 48.763298a93.890913 93.890913 0 0 1 94.354151 95.938911l-2.169901 96.548433h177.127366a94.256627 94.256627 0 0 1 94.183484 94.305389v181.540312H882.589215a92.647487 92.647487 0 0 1 0 185.294974h-97.52367v178.517078l-0.097524 4.876183A94.305389 94.305389 0 0 1 690.85768 975.238165h-123.586871v-50.151548a151.088546 151.088546 0 0 0-74.191132-134.509522 151.405498 151.405498 0 0 0-154.331209 0l-5.193135 3.218281a151.45426 151.45426 0 0 0-68.997997 132.095812L264.532955 975.238165H142.994081l-4.827421-0.121905A94.32977 94.32977 0 0 1 48.761835 880.908395v-125.805535h58.099727a149.8695 149.8695 0 0 0 149.845119-149.8695l-0.097524-5.485706a149.8695 149.8695 0 0 0-149.747595-144.383794H48.761835v-119.807829a94.256627 94.256627 0 0 1 94.232246-94.256627h24.380918v-0.073143h156.939966V146.555158a97.865003 97.865003 0 0 1 92.379297-97.645575L421.521684 48.763298z" fill="#20A0FF" p-id="3469"></path></svg>