<svg t="1639106997495" class="icon" viewBox="0 0 1264 1024" version="1.1" xmlns="http://www.w3.org/2000/svg" p-id="3853" width="200" height="200"><path d="M1200.941176 0H64A64 64 0 0 0 0 64v896C0 995.358118 28.641882 1024 64 1024h1136.941176A64 64 0 0 0 1264.941176 960V64A64 64 0 0 0 1200.941176 0zM64 60.235294h1136.941176c2.078118 0 3.764706 1.686588 3.764706 3.764706v896a3.764706 3.764706 0 0 1-3.764706 3.764706H64A3.764706 3.764706 0 0 1 60.235294 960V64C60.235294 61.921882 61.921882 60.235294 64 60.235294z" fill="#999999" p-id="3854"></path><path d="M1174.588235 0H90.352941a90.352941 90.352941 0 0 0-90.352941 90.352941v180.705883a30.117647 30.117647 0 0 0 30.117647 30.117647h1204.705882a30.117647 30.117647 0 0 0 30.117647-30.117647V90.352941a90.352941 90.352941 0 0 0-90.352941-90.352941z m0 60.235294l3.523765 0.210824A30.117647 30.117647 0 0 1 1204.705882 90.352941v150.588235H60.235294V90.352941a30.117647 30.117647 0 0 1 30.117647-30.117647h1084.235294zM667.979294 452.246588a30.117647 30.117647 0 0 1 24.696471 31.533177l-0.451765 3.493647-60.235294 331.294117a30.117647 30.117647 0 0 1-59.693177-7.28847l0.421647-3.493647 60.235295-331.294118a30.117647 30.117647 0 0 1 31.533176-24.69647l3.493647 0.451764zM820.163765 462.607059a30.117647 30.117647 0 0 1 39.363764-6.113883l3.041883 2.258824 180.705882 150.588235a30.117647 30.117647 0 0 1 4.517647 41.622589l-2.499765 2.800941-180.705882 180.705882a30.117647 30.117647 0 0 1-45.086118-39.755294l2.499765-2.831059 157.334588-157.394823-155.316705-129.475765a30.117647 30.117647 0 0 1-6.113883-39.363765l2.258824-3.041882zM402.371765 458.752a30.117647 30.117647 0 0 1 41.321411 43.670588l-2.770823 2.590118-155.346824 129.475765 157.364706 157.394823a30.117647 30.117647 0 0 1 2.499765 39.755294l-2.499765 2.831059a30.117647 30.117647 0 0 1-39.755294 2.499765l-2.831059-2.499765-180.705882-180.705882a30.117647 30.117647 0 0 1-0.722824-41.86353l2.710589-2.56 180.705882-150.588235z" fill="#999999" p-id="3855"></path></svg>