<svg t="1632366708782" class="icon" viewBox="0 0 1024 1024" version="1.1" xmlns="http://www.w3.org/2000/svg" p-id="2404" width="200" height="200"><path d="M0 512c0 282.774588 229.225412 512 512 512s512-229.225412 512-512S794.774588 0 512 0 0 229.225412 0 512z" fill="#20A0FF" p-id="2405"></path><path d="M512 558.561882c62.885647 0 120.922353-55.687529 127.442824-137.08047C646.234353 336.323765 590.396235 256 512 256c-78.396235 0-134.234353 80.323765-127.442824 165.496471 6.520471 81.392941 64.557176 137.035294 127.442824 137.035294v0.030117z m-1.129412 34.876236c-140.754824 0-254.870588 57.524706-254.870588 128.421647 0 24.244706 21.714824 33.596235 85.534118 40.688941C390.896941 768 449.807059 768 512 768c63.698824 0 126.885647 0 171.339294-5.466353C746.224941 754.748235 768 746.074353 768 721.844706c0-70.896941-116.389647-128.391529-257.129412-128.39153z" fill="#FFFFFF" p-id="2406"></path></svg>