<svg class="icon" viewBox="0 0 1210 1024" xmlns="http://www.w3.org/2000/svg" width="236.328" height="200"><defs><style/></defs><path d="M688.932 705.815H332.16c-17.129 0-28.253-8.145-31-22.667-.511-2.933-.465-5.958-.465-8.937V355.14c0-20.153 10.52-30.859 30.255-30.859h357.934V30.627c0-13.033 5.958-23.366 16.105-27.369a25.693 25.693 0 0130.767 7.168c5.073 5.54 10.519 10.613 15.732 16.012l195.724 202.845 251.438 260.422c13.964 14.429 14.01 29.696.233 43.985L839.087 906.52c-34.117 35.374-68.421 70.516-102.54 105.844-8.75 9.123-18.57 13.125-30.533 8.378-11.636-4.562-17.129-14.057-17.129-29.045V705.815zM473.472 6.33v107.427H200.718c-55.576 0-96.536 42.636-96.536 100.492 0 200.145.326 400.29-.232 600.436-.14 52.969 38.632 91.09 74.519 98.071 7.913 1.536 16.105 2.188 24.203 2.235 86.947.14 173.894.093 260.888.093h9.774v106.821c-1.256.28-2.7.838-4.142.838-92.44 0-184.925.978-277.411-.419-90.298-1.35-170.31-72.517-187.578-164.677a217.74 217.74 0 01-3.63-39.61c-.187-202.334-.7-404.713.139-606.953.372-84.62 40.82-145.269 111.43-184.693a164.864 164.864 0 0180.756-20.247c91.741-.233 183.436-.093 275.084-.093 1.536 0 3.072.186 5.492.28z"/></svg>