<svg class="icon" viewBox="0 0 1024 1024" xmlns="http://www.w3.org/2000/svg" width="200" height="200"><defs><style/></defs><path d="M512 0C229.258 0 0 229.258 0 512s229.258 512 512 512 512-229.258 512-512S794.742 0 512 0zm237.49 701.952c0 8.113-1.025 15.99-2.403 23.749 0 0-13.47 23.788-45.135 23.788H322.048c-17.605 0-32.69-9.61-40.92-23.788 0 0-6.617-6.695-6.617-23.749v-11.894h.787c6.42-71.877 69.632-132.017 156.24-155.57a142.415 142.415 0 0180.344-260.017 142.651 142.651 0 01142.65 142.573c0 48.797-24.575 91.884-62.07 117.602 86.647 23.395 149.938 83.496 156.24 155.412h.787v11.894z"/></svg>