<svg class="icon" width="200" height="199.42" viewBox="0 0 1027 1024" xmlns="http://www.w3.org/2000/svg"><path d="M918.466 150.605V47.92a47.92 47.92 0 00-95.84 0v102.685a155.169 155.169 0 000 294.935v530.54a47.92 47.92 0 0095.84 0V445.54a154.598 154.598 0 000-294.935zm11.41 147.182a57.047 57.047 0 01-16.544 44.497 57.047 57.047 0 01-96.98-66.745 57.047 57.047 0 0157.046-36.51h11.41a57.047 57.047 0 0145.067 58.758zM205.373 150.605V47.92a48.49 48.49 0 00-96.41 0v102.685a155.169 155.169 0 000 294.935v530.54a48.49 48.49 0 0096.41 0V445.54a155.169 155.169 0 000-294.935zm10.839 147.182a57.047 57.047 0 01-17.114 41.645 57.047 57.047 0 01-96.41-63.893 57.047 57.047 0 0157.047-36.51h11.41a57.047 57.047 0 0145.067 58.758zM561.92 507.151V50.772a48.49 48.49 0 00-96.41 0v456.379a155.169 155.169 0 000 294.935v171.142a48.49 48.49 0 0096.41 0V802.086a155.169 155.169 0 000-294.935zm9.127 147.753a60.47 60.47 0 01-17.114 41.644 57.047 57.047 0 01-95.84-64.463A57.047 57.047 0 01514 596.145h11.41a57.047 57.047 0 0145.637 58.759z"/><path d="M157.454 142.048a156.88 156.88 0 10156.31 156.31 156.88 156.88 0 00-156.31-156.31zm0 215.068a57.047 57.047 0 1157.047-57.047 57.047 57.047 0 01-57.047 57.047zM514 498.023a156.88 156.88 0 10156.31 156.31A156.88 156.88 0 00514 498.023zm0 215.64a57.047 57.047 0 1157.047-57.048A57.047 57.047 0 01514 713.662zm357.117-571.615a156.88 156.88 0 10156.31 156.31 156.88 156.88 0 00-156.31-156.31zm0 215.068a57.047 57.047 0 1157.047-57.047 57.047 57.047 0 01-57.047 57.047z"/></svg>