<svg class="icon" viewBox="0 0 1024 1024" xmlns="http://www.w3.org/2000/svg" width="64" height="64"><defs><style/></defs><path d="M546.133 529.067a119.467 119.467 0 10238.934 0 119.467 119.467 0 10-238.934 0zM887.467 870.4a221.867 221.867 0 10-443.734 0" fill="#3CD0BE"/><path d="M802.611 348.194a26.214 26.214 0 01-25.941-26.453v-44.032c0-48.504-34.816-88.064-77.722-88.064H232.585c-42.872 0-77.722 39.492-77.722 88.064v458.035c0 48.538 34.884 88.064 77.722 88.064h103.628c14.268 0 25.942 11.81 25.942 26.453 0 14.541-11.606 26.42-25.942 26.42H232.585c-71.34 0-129.536-63.215-129.536-140.869v-458.07c0-77.687 58.094-140.867 129.536-140.867h466.33c71.44 0 129.535 63.18 129.535 140.868v44.032c0 14.609-11.605 26.42-25.839 26.42zm-595.9 184.969c0-14.541 11.606-26.42 25.84-26.42h155.408c14.336 0 25.942 11.845 25.942 26.42 0 14.54-11.606 26.453-25.942 26.453H232.55a26.283 26.283 0 01-25.839-26.453zm0-158.516c0-14.574 11.606-26.419 25.84-26.419h207.325c14.268 0 25.873 11.845 25.873 26.42 0 14.609-11.605 26.385-25.873 26.385H232.585a26.214 26.214 0 01-25.874-26.386zm375.843 271.087a159.13 159.13 0 01-64.99-128.41c0-87.38 69.768-158.549 155.375-158.549 85.64 0 155.409 71.168 155.409 158.55a159.061 159.061 0 01-64.99 128.41c82.637 41.983 142.677 135.167 142.677 215.04 0 14.643-11.605 26.419-25.941 26.419a26.146 26.146 0 01-25.873-26.42c0-73.045-81.238-184.934-181.35-184.934S491.52 787.695 491.52 860.74c0 14.643-11.605 26.42-25.941 26.42a26.146 26.146 0 01-25.84-26.42c.137-79.872 60.144-173.056 142.815-215.04zm194.082-128.41c0-58.265-46.422-105.676-103.595-105.676-57.207 0-103.595 47.411-103.595 105.677 0 58.3 46.422 105.642 103.63 105.642 57.173 0 103.56-47.342 103.56-105.642z" fill="#FFF"/></svg>