<svg class="icon" viewBox="0 0 1024 1024" xmlns="http://www.w3.org/2000/svg" width="200" height="200"><defs><style/></defs><path d="M766.604 0a46.545 46.545 0 0146.545 46.545v186.182a46.545 46.545 0 01-46.545 46.546h-71.168c-18.246 23.133-27.37 46.312-27.37 69.632s9.124 46.731 27.323 70.004h235.52a46.545 46.545 0 0146.546 46.546v372.363a46.545 46.545 0 01-46.546 46.546H93.091a46.545 46.545 0 01-46.546-46.546V465.455a46.545 46.545 0 0146.546-46.546h235.473c18.246-22.016 27.37-44.823 27.37-68.468 0-23.692-9.124-47.384-27.37-71.168H257.35a46.545 46.545 0 01-46.546-46.546V46.545A46.545 46.545 0 01257.35 0h509.3zm-18.619 65.164H275.968v148.945h52.596a65.164 65.164 0 0147.337 20.387l4.329 5.12c26.53 34.49 40.867 71.773 40.867 110.778 0 39.75-14.895 76.986-42.357 110.127a65.164 65.164 0 01-42.961 23.133l-7.215.419H111.71V819.2h800.582V484.073H695.436a65.164 65.164 0 01-46.965-20.015l-4.375-4.98c-26.717-34.165-41.193-71.215-41.193-110.173s14.569-76.056 41.426-110.034a65.164 65.164 0 0144.497-24.436l6.61-.326h52.55V65.164zM79.12700000000001 958.836h865.746q32.582 0 32.582 32.582T944.873 1024H79.127q-32.582 0-32.582-32.582t32.582-32.582z" fill="#808CA3"/><path d="M838.05 710.144a16.29 16.29 0 01-32.58 0v-153.6a16.29 16.29 0 1132.58 0v153.6zM836.701 763.951q0 23.272-23.273 23.272-23.272 0-23.272-23.272 0-23.273 23.272-23.273 23.273 0 23.273 23.273z" fill="#808CA3"/></svg>