<svg class="icon" viewBox="0 0 1024 1024" xmlns="http://www.w3.org/2000/svg" width="200" height="200"><defs><style/></defs><path d="M934.957 233.873A89.043 89.043 0 011024 322.916V843.02a89.043 89.043 0 01-89.043 89.044H89.043A89.043 89.043 0 010 843.019V322.916a89.043 89.043 0 0189.043-89.043h845.914zm0 62.33H89.043a26.713 26.713 0 00-26.356 22.395l-.357 4.318V843.02a26.713 26.713 0 0022.395 26.357l4.318.356h845.914a26.713 26.713 0 0026.356-22.35l.357-4.363V322.916a26.713 26.713 0 00-22.395-26.357l-4.318-.356z" fill="#808CA3"/><path d="M940.255 235.386a31.165 31.165 0 01-14.559 60.461l-4.14-.98-616.048-193.625c-30.275-10.996-63.532 3.028-78.358 34.46l-2.582 6.1-58.591 114.465a31.165 31.165 0 01-57.166-24.487l1.692-3.918 57.032-110.903c22.617-62.108 89.578-95.277 150.929-77.023l7.034 2.315 614.757 193.135zm-660.97 231.202a93.05 93.05 0 110 186.234 93.05 93.05 0 010-186.19zm0 53.426a39.624 39.624 0 100 79.382 39.624 39.624 0 000-79.338z" fill="#808CA3"/><path d="M573.885 527.137a31.165 31.165 0 0131.165 31.166v2.804a31.165 31.165 0 01-31.165 31.166H357.02a31.165 31.165 0 01-31.165-31.166v-2.804a31.165 31.165 0 0131.165-31.166h216.954z" fill="#808CA3"/></svg>