<svg t="1630379360533" class="icon" viewBox="0 0 1024 1024" version="1.1" xmlns="http://www.w3.org/2000/svg" p-id="3830" width="200" height="200"><path d="M768 42.666667a128 128 0 0 1 127.786667 120.490666L896 170.666667v239.786666h-85.333333V170.666667a42.666667 42.666667 0 0 0-37.674667-42.368L768 128H256a42.666667 42.666667 0 0 0-42.368 37.674667L213.333333 170.666667v682.666666a42.666667 42.666667 0 0 0 37.674667 42.368L256 896h512a42.666667 42.666667 0 0 0 42.368-37.674667L810.666667 853.333333v-248.106666h85.333333V853.333333a128 128 0 0 1-120.490667 127.786667L768 981.333333H256a128 128 0 0 1-127.786667-120.490666L128 853.333333V170.666667a128 128 0 0 1 120.490667-127.786667L256 42.666667h512z" p-id="3831"></path><path d="M213.333333 256a42.666667 42.666667 0 0 1 4.992 85.034667L213.333333 341.333333H85.333333a42.666667 42.666667 0 0 1-4.992-85.034666L85.333333 256h128zM213.333333 469.333333a42.666667 42.666667 0 0 1 4.992 85.034667L213.333333 554.666667H85.333333a42.666667 42.666667 0 0 1-4.992-85.034667L85.333333 469.333333h128zM213.333333 682.666667a42.666667 42.666667 0 0 1 4.992 85.034666L213.333333 768H85.333333a42.666667 42.666667 0 0 1-4.992-85.034667L85.333333 682.666667h128zM682.666667 256a42.666667 42.666667 0 0 1 4.992 85.034667L682.666667 341.333333H341.333333a42.666667 42.666667 0 0 1-4.992-85.034666L341.333333 256h341.333334zM682.666667 682.666667a42.666667 42.666667 0 0 1 4.992 85.034666L682.666667 768H341.333333a42.666667 42.666667 0 0 1-4.992-85.034667L341.333333 682.666667h341.333334zM853.333333 384a128 128 0 1 1 0 256 128 128 0 0 1 0-256z m0 85.333333a42.666667 42.666667 0 1 0 0 85.333334 42.666667 42.666667 0 0 0 0-85.333334z"  p-id="3832"></path></svg>