<svg t="1630379385572" class="icon" viewBox="0 0 1024 1024" version="1.1" xmlns="http://www.w3.org/2000/svg" p-id="3958" width="200" height="200"><path d="M170.666667 85.333333m85.333333 0l512 0q85.333333 0 85.333333 85.333334l0 682.666666q0 85.333333-85.333333 85.333334l-512 0q-85.333333 0-85.333333-85.333334l0-682.666666q0-85.333333 85.333333-85.333334Z" fill="#20A0FF" p-id="3959"></path><path d="M213.333333 256a42.666667 42.666667 0 0 1 4.992 85.034667L213.333333 341.333333H85.333333a42.666667 42.666667 0 0 1-4.992-85.034666L85.333333 256h128zM213.333333 469.333333a42.666667 42.666667 0 0 1 4.992 85.034667L213.333333 554.666667H85.333333a42.666667 42.666667 0 0 1-4.992-85.034667L85.333333 469.333333h128zM213.333333 682.666667a42.666667 42.666667 0 0 1 4.992 85.034666L213.333333 768H85.333333a42.666667 42.666667 0 0 1-4.992-85.034667L85.333333 682.666667h128z" fill="#1A70FD" p-id="3960"></path><path d="M682.666667 256a42.666667 42.666667 0 0 1 4.992 85.034667L682.666667 341.333333H341.333333a42.666667 42.666667 0 0 1-4.992-85.034666L341.333333 256h341.333334zM682.666667 682.666667a42.666667 42.666667 0 0 1 4.992 85.034666L682.666667 768H341.333333a42.666667 42.666667 0 0 1-4.992-85.034667L341.333333 682.666667h341.333334z" fill="#FFFFFF" p-id="3961"></path><path d="M853.333333 512m-85.333333 0a85.333333 85.333333 0 1 0 170.666667 0 85.333333 85.333333 0 1 0-170.666667 0Z" fill="#1A70FD" p-id="3962"></path></svg>