<svg t="1640162863020" class="icon" viewBox="0 0 1024 1024" version="1.1" xmlns="http://www.w3.org/2000/svg" p-id="3653" width="200" height="200"><path d="M1023.296484 121.836238C1023.296484 54.554494 969.637374 0 903.506839 0h-217.578415C619.733933 0 566.010868 54.554494 566.010868 121.836238v221.287864c0 67.217788 53.723065 121.772282 119.8536 121.772282h217.578415C969.573418 464.96034 1023.296484 410.34189 1023.296484 343.124102v-221.287864z m-72.590095 228.323028c0 22.384611-36.327025 40.931859-58.455811 40.931859h-212.717757a40.356255 40.356255 0 0 1-39.652739-40.931859V115.248766c0-22.384611 17.651864-40.292299 39.652739-40.292299h231.009181c22.000874 0 40.036475 17.907688 40.036475 40.292299v234.9105h0.127912zM1023.296484 680.172381c0-67.217788-53.659109-121.772282-119.789645-121.772281h-217.578415c-66.194491 0-119.853601 54.554494-119.8536 121.772281v221.287865c0 67.281744 53.723065 121.836238 119.8536 121.836238h217.578415C969.573418 1023.296484 1023.296484 968.74199 1023.296484 901.460246v-221.287865z m-72.590095 227.555556a40.292299 40.292299 0 0 1-39.972519 40.612079H679.852601a40.292299 40.292299 0 0 1-39.972519-40.612079V672.817438c0-22.384611 17.907688-40.612079 39.972519-40.612079h230.945225a40.292299 40.292299 0 0 1 39.972519 40.612079v234.910499z m-493.484729-227.555556c0-67.217788-53.723065-121.772282-119.853601-121.772281H119.789645C53.723065 558.336144 0 612.954594 0 680.172381v221.287865C0 968.74199 53.659109 1023.296484 119.789645 1023.296484h217.578414c66.194491 0 119.853601-54.554494 119.853601-121.836238v-221.287865z m-73.741303 227.555556a40.292299 40.292299 0 0 1-39.972519 40.612079H112.562613a40.292299 40.292299 0 0 1-39.972519-40.612079V672.817438c0-22.384611 17.907688-40.612079 39.972519-40.612079H343.443882a40.292299 40.292299 0 0 1 39.972519 40.612079v234.910499zM457.22166 121.836238C457.22166 54.554494 403.498595 0 337.368059 0H119.789645C53.723065 0 0 54.554494 0 121.836238v221.287864c0 67.217788 53.659109 121.772282 119.789645 121.772282h217.578414c66.194491 0 119.853601-54.554494 119.853601-121.772282v-221.287864zM383.480357 350.479046a40.292299 40.292299 0 0 1-39.972519 40.612079H112.562613a40.292299 40.292299 0 0 1-39.972519-40.612079V115.568547c0-22.384611 17.907688-40.612079 39.972519-40.61208H343.443882a40.292299 40.292299 0 0 1 39.972519 40.61208V350.479046z" fill="#808CA3" p-id="3654"></path></svg>