<svg class="icon" viewBox="0 0 1024 1024" xmlns="http://www.w3.org/2000/svg" width="200" height="200"><defs><style/></defs><path d="M480.835 512A31.165 31.165 0 01512 543.165v2.85a31.165 31.165 0 01-31.165 31.165H263.88a31.165 31.165 0 01-31.165-31.165v-2.85A31.165 31.165 0 01263.88 512h216.955zm325.81 186.19a31.165 31.165 0 0131.165 31.165v2.805a31.165 31.165 0 01-31.165 31.165h-542.72a31.165 31.165 0 01-31.165-31.165v-2.805a31.165 31.165 0 0131.165-31.165h542.72z" fill="#FFF"/><path d="M932.953 248.12H46.525a31.165 31.165 0 00-31.165 31.165v607.098a75.687 75.687 0 0075.687 75.687h841.906a75.687 75.687 0 0075.687-75.687V323.807a75.687 75.687 0 00-75.687-75.687zM77.69 886.383V310.406h855.263a13.357 13.357 0 0113.357 13.356v562.666a13.357 13.357 0 01-13.357 13.356H91.047a13.357 13.357 0 01-13.357-13.356z" fill="#FFF"/><path d="M372.38 108.455H91.047a75.687 75.687 0 00-75.687 75.687v95.143a31.165 31.165 0 0031.165 31.165H512a31.165 31.165 0 0031.165-32.056l-.222-7.924A170.963 170.963 0 00372.38 108.455zm0 62.33l7.123.268a108.589 108.589 0 0196.034 74.573l.668 2.45H77.735v-63.934a13.357 13.357 0 0113.356-13.357H372.38z" fill="#FFF"/><path d="M651.487 311.34h186.19v280.265l-93.095-75.464-93.05 75.464z" fill="#20A0FF"/></svg>