<svg class="icon" viewBox="0 0 1024 1024" xmlns="http://www.w3.org/2000/svg" width="200" height="200"><defs><style/></defs><path d="M480.835 444.193A31.165 31.165 0 01512 475.36v2.849a31.165 31.165 0 01-31.165 31.165H263.88a31.165 31.165 0 01-31.165-31.165v-2.85a31.165 31.165 0 0131.165-31.165h216.955zm325.81 186.235a31.165 31.165 0 0131.165 31.165v2.805a31.165 31.165 0 01-31.165 31.165h-542.72a31.165 31.165 0 01-31.165-31.165v-2.85a31.165 31.165 0 0131.165-31.165h542.72z" fill="#808CA3"/><path d="M932.953 180.313H46.525a31.165 31.165 0 00-31.165 31.165v607.099a75.687 75.687 0 0075.687 75.687h841.906a75.687 75.687 0 0075.687-75.687V256a75.687 75.687 0 00-75.687-75.687zM77.69 818.577V242.643h855.263A13.357 13.357 0 01946.31 256v562.577a13.357 13.357 0 01-13.357 13.356H91.047a13.357 13.357 0 01-13.357-13.356z" fill="#808CA3"/><path d="M372.38 40.693H91.047A75.687 75.687 0 0015.36 116.38v95.098a31.165 31.165 0 0031.165 31.165H512a31.165 31.165 0 0031.165-32.055l-.222-7.88A170.963 170.963 0 00372.38 40.647zm0 62.33l7.123.223a108.589 108.589 0 0196.034 74.618l.668 2.449H77.735V116.38a13.357 13.357 0 0113.356-13.357H372.38zm465.297 87.085h-186.19a31.165 31.165 0 00-31.166 31.165v302.525l.312 4.497a31.165 31.165 0 0050.488 19.723l73.46-59.57 73.461 59.57a31.165 31.165 0 0050.755-24.22V221.273a31.165 31.165 0 00-31.165-31.165zm-31.166 62.286v206.002l-42.295-34.282-4.007-2.76a31.165 31.165 0 00-35.262 2.76l-42.295 34.282V252.394h123.815z" fill="#808CA3"/></svg>