<svg t="1640163598155" class="icon" viewBox="0 0 1024 1024" version="1.1" xmlns="http://www.w3.org/2000/svg" p-id="5546" width="200" height="200"><path d="M110.528 604.992h792.128v372.736L663.488 907.52l-157.44 70.144-159.744-55.04-235.776 55.04z" fill="#3CD0BE" p-id="5547"></path><path d="M499.328 1024l-146.752-82.88-150.72 78.272h-8.448A129.536 129.536 0 0 1 64 889.984V129.408C64 58.048 122.048 0 193.408 0h612.352c71.36 0 129.408 58.048 129.408 129.408v760.576a129.536 129.536 0 0 1-129.408 129.408h-9.344l-133.888-78.208L499.328 1024zM193.408 69.184a60.288 60.288 0 0 0-60.16 60.16v760.64c0 30.592 22.976 56 52.608 59.712l168.064-87.232 147.2 83.072 163.776-83.072 149.248 87.104a60.288 60.288 0 0 0 51.84-59.584V129.408a60.288 60.288 0 0 0-60.16-60.224H193.28z" fill="#FFFFFF" p-id="5548"></path><path d="M681.984 254.656h-397.44c-17.472 0-31.68-15.232-31.68-34.112 0-18.816 14.208-34.048 31.744-34.048h397.44c17.472 0 31.68 15.232 31.68 34.048 0 18.88-14.208 34.112-31.744 34.112z m0 245.504h-397.44c-17.472 0-31.68-15.296-31.68-34.112 0-18.816 14.208-34.112 31.744-34.112h397.44c17.472 0 31.68 15.296 31.68 34.112 0 18.816-14.208 34.112-31.744 34.112z m0 245.44h-397.44c-17.472 0-31.68-15.232-31.68-34.112 0-18.816 14.208-34.048 31.744-34.048h397.44c17.472 0 31.68 15.232 31.68 34.048 0 18.88-14.208 34.112-31.744 34.112z" fill="#FFFFFF" p-id="5549"></path></svg>