<svg t="1640163133452" class="icon" viewBox="0 0 1024 1024" version="1.1" xmlns="http://www.w3.org/2000/svg" p-id="4196" width="200" height="200"><path d="M913.088 535.68c61.248 0 110.912 48.832 110.912 109.12v270.016c0 60.288-49.664 109.184-110.912 109.184H110.912C49.664 1024 0 975.104 0 914.816v-270.016C0 584.512 49.664 535.68 110.912 535.68h802.176z m0 62.976H110.912a46.528 46.528 0 0 0-46.912 46.144v270.016c0 25.472 20.992 46.144 46.912 46.144h802.176a46.528 46.528 0 0 0 46.912-46.144v-270.016a46.528 46.528 0 0 0-46.912-46.144z m0-598.656C974.336 0 1024 48.896 1024 109.184v270.016c0 60.288-49.664 109.184-110.912 109.184H110.912C49.664 488.32 0 439.488 0 379.2V109.184C0 48.896 49.664 0 110.912 0h802.176z m0 63.04H110.912A46.528 46.528 0 0 0 64 109.184v270.016c0 25.472 20.992 46.144 46.912 46.144h802.176A46.528 46.528 0 0 0 960 379.2V109.184a46.528 46.528 0 0 0-46.912-46.144zM141.248 279.168c2.88 3.008 4.672 7.04 4.672 11.2a15.808 15.808 0 0 1-4.672 11.008 16.448 16.448 0 0 1-11.328 4.736 16.96 16.96 0 0 1-11.392-4.608 15.744 15.744 0 0 1 0-22.4 16.96 16.96 0 0 1 22.72 0zM289.92 126.016c8.832 0 16 7.04 16 15.744a15.872 15.872 0 0 1-16 15.808H190.208c-24.96 0-46.208 27.072-46.208 50.368v28.352a15.872 15.872 0 0 1-16 15.744 15.872 15.872 0 0 1-16-15.744V208c0-43.648 37.568-81.92 78.208-81.92H289.92z" fill="#808CA3" p-id="4197"></path></svg>