<svg t="1640163305081" class="icon" viewBox="0 0 1088 1024" version="1.1" xmlns="http://www.w3.org/2000/svg" p-id="5003" width="200" height="200"><path d="M327.616 551.36a39.04 39.04 0 0 0-39.424 39.424v157.504c0 22.08 17.344 39.424 39.424 39.424a39.04 39.04 0 0 0 39.36-39.424V590.784a39.04 39.04 0 0 0-39.36-39.424zM563.84 157.568a39.04 39.04 0 0 0-39.36 39.36v551.36c0 22.08 17.28 39.424 39.36 39.424a39.04 39.04 0 0 0 39.36-39.424V196.928a39.04 39.04 0 0 0-39.36-39.36zM918.336 0H209.408A158.016 158.016 0 0 0 51.904 157.568v708.864A158.016 158.016 0 0 0 209.408 1024H918.4a158.016 158.016 0 0 0 157.568-157.568V157.568A158.016 158.016 0 0 0 918.336 0z m78.784 866.432c0 43.328-35.456 78.784-78.72 78.784H209.344c-43.264 0-78.72-35.456-78.72-78.72V157.504c0-43.328 35.456-78.784 78.72-78.784H918.4c43.328 0 78.784 35.456 78.784 78.72v708.928z m-196.928-472.576a39.04 39.04 0 0 0-39.36 39.36v315.072c0 22.08 17.28 39.424 39.36 39.424a39.04 39.04 0 0 0 39.424-39.424V433.28a39.04 39.04 0 0 0-39.424-39.36z" fill="#808CA3" p-id="5004"></path></svg>