<svg t="1640163246006" class="icon" viewBox="0 0 1024 1024" version="1.1" xmlns="http://www.w3.org/2000/svg" p-id="4868" width="200" height="200"><path d="M640 0h64a320 320 0 0 1 320 320v368a320 320 0 0 1-320 320h-64V0z" fill="#3CD0BE" p-id="4869"></path><path d="M275.712 551.36a39.04 39.04 0 0 0-39.424 39.424v157.504c0 22.08 17.344 39.424 39.424 39.424a39.04 39.04 0 0 0 39.36-39.424V590.784a39.04 39.04 0 0 0-39.36-39.424zM512 157.568a39.04 39.04 0 0 0-39.36 39.36v551.36c0 22.08 17.28 39.424 39.36 39.424a39.04 39.04 0 0 0 39.36-39.424V196.928A39.04 39.04 0 0 0 512 157.568zM866.432 0H157.568A158.016 158.016 0 0 0 0 157.568v708.864A158.016 158.016 0 0 0 157.568 1024h708.864A158.016 158.016 0 0 0 1024 866.432V157.568A158.016 158.016 0 0 0 866.432 0z m78.784 866.432c0 43.328-35.456 78.784-78.72 78.784H157.504c-43.328 0-78.784-35.456-78.784-78.72V157.504c0-43.328 35.456-78.784 78.72-78.784h708.928c43.328 0 78.784 35.456 78.784 78.72v708.928z m-196.928-472.576a39.04 39.04 0 0 0-39.36 39.36v315.072c0 22.08 17.28 39.424 39.36 39.424a39.04 39.04 0 0 0 39.424-39.424V433.28a39.04 39.04 0 0 0-39.424-39.36z" fill="#FFFFFF" p-id="4870"></path></svg>