<svg t="1640163345980" class="icon" viewBox="0 0 1024 1024" version="1.1" xmlns="http://www.w3.org/2000/svg" p-id="5272" width="200" height="200"><path d="M511.872008 512.031998m-270.895069 0a270.895069 270.895069 0 1 0 541.790138 0 270.895069 270.895069 0 1 0-541.790138 0Z" fill="#3CD0BE" p-id="5273"></path><path d="M466.754828 196.019749m45.11718 0l0.063996 0q45.11718 0 45.11718 45.11718l0 0.063996q0 45.11718-45.11718 45.11718l-0.063996 0q-45.11718 0-45.11718-45.11718l0-0.063996q0-45.11718 45.11718-45.11718Z" fill="#3CD0BE" p-id="5274"></path><path d="M466.754828 737.745891m45.11718 0l0.063996 0q45.11718 0 45.11718 45.11718l0 0.063996q0 45.11718-45.11718 45.11718l-0.063996 0q-45.11718 0-45.11718-45.11718l0-0.063996q0-45.11718 45.11718-45.11718Z" fill="#3CD0BE" p-id="5275"></path><path d="M737.585901 466.914818m45.11718 0l0.063996 0q45.11718 0 45.11718 45.11718l0 0.063996q0 45.11718-45.11718 45.11718l-0.063996 0q-45.11718 0-45.11718-45.11718l0-0.063996q0-45.11718 45.11718-45.11718Z" fill="#3CD0BE" p-id="5276"></path><path d="M195.859759 466.914818m45.11718 0l0.063996 0q45.11718 0 45.11718 45.11718l0 0.063996q0 45.11718-45.11718 45.11718l-0.063996 0q-45.11718 0-45.11718-45.11718l0-0.063996q0-45.11718 45.11718-45.11718Z" fill="#3CD0BE" p-id="5277"></path><path d="M0.031998 469.346666a64.059996 64.059996 0 0 1 42.23736-52.7967l98.681833-35.069809a395.495282 395.495282 0 0 1 16.446972-39.549528l-44.925193-94.650084a63.996 63.996 0 0 1 7.295544-66.939816l60.476221-60.476221a63.484032 63.484032 0 0 1 32.445972-13.11918c12.223236-1.27992 24.126492 0.895944 34.55784 5.75964l94.586088 44.989189c13.055184-6.207612 26.174364-11.647272 39.67752-16.446972L416.581964 42.365352a63.67602 63.67602 0 0 1 52.7967-42.23736h85.050684a64.059996 64.059996 0 0 1 52.7967 42.23736l35.069809 98.681833c13.375164 4.7997 26.622336 10.111368 39.67752 16.446972l94.586088-44.925193a63.996 63.996 0 0 1 66.939816 7.295544l60.476221 60.476221c7.03956 9.151428 11.903256 20.222736 13.11918 32.445972 1.27992 12.223236-0.895944 24.126492-5.75964 34.55784l-44.989189 94.586088c6.207612 12.927192 11.711268 26.174364 16.510968 39.549528l98.553841 35.069809c10.87932 3.83976 20.926692 10.751328 28.734204 20.350728 7.743516 9.5994 12.223236 20.926692 13.567152 32.445972v85.11468a64.059996 64.059996 0 0 1-42.23736 52.7967l-98.617837 35.069809a408.934442 408.934442 0 0 1-16.510968 39.67752l44.925193 94.650084a63.996 63.996 0 0 1-7.295544 66.939816l-60.476221 60.476221a63.804012 63.804012 0 0 1-66.939816 7.295544l-94.650084-44.925193a426.40535 426.40535 0 0 1-39.67752 16.446972L607.35404 981.698644a63.67602 63.67602 0 0 1-52.7967 42.23736l-84.986688 0.063996a64.059996 64.059996 0 0 1-52.7967-42.23736l-35.069809-98.681833a408.934442 408.934442 0 0 1-39.67752-16.446972l-94.650084 44.925193a63.996 63.996 0 0 1-66.939816-7.295544l-60.476221-60.476221a63.804012 63.804012 0 0 1-7.295544-66.939816l44.925193-94.71408a426.40535 426.40535 0 0 1-16.446972-39.613524L42.269358 607.322042A63.67602 63.67602 0 0 1 0.031998 554.461346l-0.063996-85.11468z m64.123992 7.551528a398.375102 398.375102 0 0 0 0 70.011624l128.311981 45.629148 4.7997 15.423036c6.07962 20.094744 14.271108 39.67752 24.254484 58.492345l7.551528 14.271108-58.428348 123.000312c15.231048 17.726892 31.806012 34.365852 49.5969 49.5969l122.936316-58.428348 14.335104 7.551528c18.814824 9.983376 38.3976 18.174864 58.492345 24.254484l15.423036 4.7997 45.629148 128.311981a393.76739 393.76739 0 0 0 69.883632 0l45.629148-128.311981 15.423036-4.7997c20.094744-6.07962 39.67752-14.271108 58.492345-24.254484l14.271108-7.551528 123.000312 58.428348c17.726892-15.231048 34.365852-31.742016 49.5969-49.5969l-58.428348-122.936316 7.551528-14.335104c9.983376-18.814824 18.174864-38.3976 24.254484-58.492345l4.7997-15.423036 128.311981-45.629148c2.047872-23.03856 2.047872-46.845072 0-70.011624l-128.311981-45.629148-4.7997-15.35904a328.043497 328.043497 0 0 0-24.254484-58.428349l-7.551528-14.335104 58.428348-122.87232a451.68377 451.68377 0 0 0-49.5969-49.660896l-122.936316 58.428348-14.335104-7.551528a329.131429 329.131429 0 0 0-58.492345-24.254484l-15.423036-4.7997-45.629148-128.311981a393.76739 393.76739 0 0 0-69.883632 0L431.36504 192.435973l-15.423036 4.7997c-20.094744 6.07962-39.67752 14.271108-58.492345 24.254484l-14.335104 7.551528-122.87232-58.428348a451.68377 451.68377 0 0 0-49.660896 49.5969l58.428348 122.936316-7.551528 14.335104c-9.983376 18.750828-18.174864 38.3976-24.254484 58.364353l-4.7997 15.423036-128.311981 45.629148z" fill="#FFFFFF" p-id="5278"></path><path d="M512 367.977001A144.118993 144.118993 0 0 1 655.991001 511.968002 144.118993 144.118993 0 0 1 512 655.959003 144.118993 144.118993 0 0 1 368.008999 511.968002 144.118993 144.118993 0 0 1 512 367.977001z m0-63.996a207.987001 207.987001 0 1 0 0 415.974002 207.987001 207.987001 0 0 0 0-415.974002z" fill="#FFFFFF" p-id="5279"></path></svg>