<svg t="1640163335810" class="icon" viewBox="0 0 1087 1024" version="1.1" xmlns="http://www.w3.org/2000/svg" p-id="5137" width="200" height="200"><path d="M51.820567 469.20005a64.039985 64.039985 0 0 1 42.352118-52.780207l98.523054-35.058853a395.371736 395.371736 0 0 1 16.50581-39.537174l-44.911158-94.620517a63.976009 63.976009 0 0 1 7.293265-66.918906l60.457329-60.457328a63.464201 63.464201 0 0 1 32.435836-13.115082c12.219418-1.27952 24.118955 0.895664 34.547045 5.757841l94.556541 44.975134c13.051106-6.205673 26.166188-11.643634 39.665126-16.441834L468.304386 42.352118a63.656129 63.656129 0 0 1 52.780207-42.224166h84.96014a64.039985 64.039985 0 0 1 52.780208 42.224166l35.122829 98.651006c13.370986 4.798201 26.61402 10.108209 39.665125 16.441834l94.556541-44.911158a63.976009 63.976009 0 0 1 66.918906 7.293265l60.457328 60.457328c7.037361 9.148569 11.899538 20.216419 13.115082 32.435837 1.27952 12.219418-0.895664 24.118955-5.757841 34.547045l-44.975134 94.556541c6.205673 12.923154 11.70761 26.166188 16.50581 39.537174l98.523054 35.058853c10.875922 3.838561 20.920155 10.74797 28.725228 20.34437 7.741097 9.596401 12.155442 20.920155 13.562914 32.435837v85.088092a64.039985 64.039985 0 0 1-42.224166 52.780207l-98.58703 35.058853a408.806697 408.806697 0 0 1-16.50581 39.665126l44.911158 94.620517a63.976009 63.976009 0 0 1-7.293265 66.918906l-60.457328 60.457328a63.784081 63.784081 0 0 1-66.918906 7.293265l-94.620517-44.911158a426.272148 426.272148 0 0 1-39.665125 16.441834L658.952893 981.391978a63.656129 63.656129 0 0 1-52.780208 42.224166l-84.96014 0.063976a64.039985 64.039985 0 0 1-52.780207-42.224166l-35.122829-98.651006a408.806697 408.806697 0 0 1-39.665126-16.441834l-94.556541 44.911158a63.976009 63.976009 0 0 1-66.918905-7.293265l-60.457329-60.457328a63.784081 63.784081 0 0 1-7.293265-66.918906l44.911158-94.684493a426.272148 426.272148 0 0 1-16.441834-39.60115l-98.714982-35.186805a63.656129 63.656129 0 0 1-42.224166-52.780207L51.820567 469.20005z m64.167937 7.549169a398.250656 398.250656 0 0 0 0 69.989754l128.271898 45.614894 4.798201 15.418218c6.077721 20.088467 14.26665 39.665126 24.246907 58.474073l7.549169 14.26665-58.410096 122.961889c15.22629 17.721354 31.7321 34.355117 49.581407 49.581407l122.897914-58.410096 14.330626 7.549169c18.808947 9.980257 38.385605 18.169187 58.474072 24.246907l15.418218 4.798201 45.614894 128.271898a393.644383 393.644383 0 0 0 69.861802 0l45.614895-128.271898 15.354242-4.798201c20.152443-6.077721 39.665126-14.26665 58.538048-24.246907l14.26665-7.549169 122.961889 58.410096c17.721354-15.22629 34.355117-31.7321 49.581407-49.581407l-58.410096-122.897913 7.549169-14.330626c9.980257-18.808947 18.169187-38.385605 24.246908-58.474073l4.7982-15.418218 128.271898-45.614894c2.047232-23.031363 2.047232-46.830439 0-69.989754l-128.271898-45.614894-4.7982-15.354243a327.941022 327.941022 0 0 0-24.246908-58.410096l-7.549169-14.330626 58.410096-122.833937a451.542671 451.542671 0 0 0-49.581407-49.645383l-122.961889 58.410096-14.26665-7.549169a329.028614 329.028614 0 0 0-58.474072-24.246907l-15.418218-4.798201-45.614895-128.271898a393.644383 393.644383 0 0 0-69.861802 0l-45.614894 128.271898-15.418218 4.798201c-20.088467 6.077721-39.665126 14.26665-58.474072 24.246907l-14.330626 7.549169-122.897914-58.410096a451.542671 451.542671 0 0 0-49.581407 49.581407l58.410096 122.897913-7.549169 14.330626c-9.980257 18.744971-18.169187 38.385605-24.246907 58.34612l-4.798201 15.418219-128.271898 45.614894z" fill="#808CA3" p-id="5138"></path><path d="M563.628639 367.862052A144.073972 144.073972 0 0 1 707.57466 511.808072a144.073972 144.073972 0 0 1-143.946021 143.94602A144.073972 144.073972 0 0 1 419.682619 511.808072a144.073972 144.073972 0 0 1 143.94602-143.94602z m0-63.976009a207.922029 207.922029 0 1 0 0.127952 415.844058 207.922029 207.922029 0 0 0-0.063976-415.844058z" fill="#808CA3" p-id="5139"></path></svg>