<svg class="icon" viewBox="0 0 1024 1024" xmlns="http://www.w3.org/2000/svg" width="200" height="200"><defs><style/></defs><path d="M232.727 506.415a34.91 34.91 0 0134.584 30.208l.325 4.7v215.04h302.546a34.91 34.91 0 014.747 69.493l-4.747.326H232.727a34.91 34.91 0 01-34.583-30.162l-.326-4.747v-249.95a34.91 34.91 0 0134.91-34.908zm208.524-308.597h350.022a34.91 34.91 0 0134.583 30.162l.326 4.747v261.865a34.91 34.91 0 01-69.493 4.748l-.325-4.748V267.636H441.25a34.91 34.91 0 01-4.794-69.492l4.747-.326h350.069H441.25z" fill="#808CA3"/><path d="M418.91 0a46.545 46.545 0 0146.545 46.545V418.91a46.545 46.545 0 01-46.546 46.546H46.545A46.545 46.545 0 010 418.909V46.545A46.545 46.545 0 0146.545 0H418.91zm-23.274 69.818H69.818v325.818h325.818V69.818zm581.819 488.727A46.545 46.545 0 011024 605.091v372.364A46.545 46.545 0 01977.455 1024H605.09a46.545 46.545 0 01-46.546-46.545V605.09a46.545 46.545 0 0146.546-46.546h372.364zm-23.273 69.819H628.364v325.818h325.818V628.364z" fill="#808CA3"/></svg>